<?xml version="1.0" encoding="UTF-8" standalone="no"?>
<svg
   xmlns:dc="http://purl.org/dc/elements/1.1/"
   xmlns:cc="http://creativecommons.org/ns#"
   xmlns:rdf="http://www.w3.org/1999/02/22-rdf-syntax-ns#"
   xmlns:svg="http://www.w3.org/2000/svg"
   xmlns="http://www.w3.org/2000/svg"
   xmlns:sodipodi="http://sodipodi.sourceforge.net/DTD/sodipodi-0.dtd"
   xmlns:inkscape="http://www.inkscape.org/namespaces/inkscape"
   viewBox="0 0 240.94 155.91"
   version="1.1"
   id="svg1942"
   sodipodi:docname="front - small.svg"
   inkscape:version="0.92.3 (2405546, 2018-03-11)">
  <metadata
     id="metadata1948">
    <rdf:RDF>
      <cc:Work
         rdf:about="">
        <dc:format>image/svg+xml</dc:format>
        <dc:type
           rdf:resource="http://purl.org/dc/dcmitype/StillImage" />
        <dc:title />
      </cc:Work>
    </rdf:RDF>
  </metadata>
  <defs
     id="defs1946" />
  <sodipodi:namedview
     pagecolor="#ffffff"
     bordercolor="#666666"
     borderopacity="1"
     objecttolerance="10"
     gridtolerance="10"
     guidetolerance="10"
     inkscape:pageopacity="0"
     inkscape:pageshadow="2"
     inkscape:window-width="1920"
     inkscape:window-height="1027"
     id="namedview1944"
     showgrid="false"
     inkscape:zoom="3.032077"
     inkscape:cx="152.35829"
     inkscape:cy="92.345004"
     inkscape:window-x="-8"
     inkscape:window-y="-8"
     inkscape:window-maximized="1"
     inkscape:current-layer="svg1942" />
  <polygon
     points="153.25 27.22 154.47 27.22 153.86 25.63 153.25 27.22"
     fill="none"
     id="polygon1010" />
  <path
     d="M29.34,100a.71.71,0,0,0-.74.62h1.49A.72.72,0,0,0,29.34,100Z"
     fill="none"
     id="path1012" />
  <path
     d="M37,127.44c0,.22.18.36.49.36a.65.65,0,0,0,.65-.41v-.31h-.61C37.13,127.08,37,127.24,37,127.44Z"
     fill="none"
     id="path1014" />
  <path
     d="M37,101.44c0,.22.18.36.49.36a.65.65,0,0,0,.65-.41v-.31h-.61C37.13,101.08,37,101.24,37,101.44Z"
     fill="none"
     id="path1016" />
  <path
     d="M229,7H11V37H229ZM170.83,21.85h-2.2l-.42-1.1h-2.4l-.42,1.1h-2.16L166,15.54h2.09ZM165.6,8h1.14v4.9H165.6Zm-6.68,0h.94L161.69,11l1.81-3h.93v4.9h-1.06V9.92l-1.44,2.42h-.51L160,10v2.88h-1.06Zm-4.7,0h3.71v.91h-2.58V9.93h2.27v.89h-2.27V12H158v.91h-3.8ZM149.47,9.4c0-.83.67-1.52,2.06-1.52a3.29,3.29,0,0,1,1.71.43l-.35.86a2.78,2.78,0,0,0-1.36-.38c-.68,0-.93.25-.93.56,0,.9,2.85.28,2.85,2.08,0,.82-.68,1.52-2.08,1.52a3.46,3.46,0,0,1-2-.57l.38-.86a2.87,2.87,0,0,0,1.62.52c.67,0,.95-.23.95-.53C152.32,10.59,149.47,11.22,149.47,9.4Zm-2-1.44h1.13v4.9h-1.13Zm2.68,7.58h2.09L155,21.85h-2.2l-.42-1.1H150l-.42,1.1h-2.16Zm-7.18,4v2.33h-2.13V15.54H143v2.24h2V15.54h2.13v6.31h-2.13V19.52ZM140.77,8h.94L143.55,11l1.81-3h.93v4.9h-1.06V9.92l-1.44,2.42h-.51L141.84,10v2.88h-1.07Zm-2.7,0,2.2,4.9h-1.19l-.44-1h-2.27l-.44,1h-1.16L137,8Zm-7.29,0h4.27v.92h-1.57v4h-1.13v-4h-1.57Zm-4.35,2.49h2v.88h-2Zm2.62,5.09h2.08l2.76,6.31h-2.2l-.42-1.1h-2.39l-.43,1.1h-2.16ZM119.92,9.4c0-.83.67-1.52,2.06-1.52a3.23,3.23,0,0,1,1.7.43l-.35.86A2.72,2.72,0,0,0,122,8.79c-.67,0-.93.25-.93.56,0,.9,2.85.28,2.85,2.08,0,.82-.68,1.52-2.08,1.52a3.45,3.45,0,0,1-2-.57l.38-.86a2.84,2.84,0,0,0,1.62.52c.67,0,1-.23,1-.53C122.77,10.59,119.92,11.22,119.92,9.4Zm-.18,6.14h1.75l2.39,2.87V15.54H126v6.31H124.2L121.81,19v2.87h-2.07ZM117.91,8H119v4.9h-1.13Zm-3.83,0h1.13l2.19,4.9h-1.19l-.44-1H113.5l-.44,1H111.9ZM107.4,8h2.12c1.31,0,2.13.68,2.13,1.78a1.61,1.61,0,0,1-1,1.55l1.1,1.57h-1.22l-.94-1.36h-1v1.36H107.4Zm.57,7.58,1.1,3.63,1.16-3.63h2l-2,6.31H108l-1-3.37-1.07,3.37h-2.28l-2-6.31h2.19l1.09,3.59L106,15.54ZM102.72,8l2.19,4.9h-1.19l-.43-1H101l-.43,1H99.41L101.6,8ZM96.15,8l1.31,2.18L98.77,8h1.11L98,11.13v1.73H96.84V11.11L95,8Zm-4.8,0h1.13v4.9H91.35ZM86.6,9.4c0-.83.67-1.52,2.06-1.52a3.23,3.23,0,0,1,1.7.43L90,9.17a2.72,2.72,0,0,0-1.35-.38c-.68,0-.94.25-.94.56,0,.9,2.85.28,2.85,2.08,0,.82-.68,1.52-2.08,1.52a3.45,3.45,0,0,1-2-.57l.38-.86A2.84,2.84,0,0,0,88.5,12c.67,0,1-.23,1-.53C89.45,10.59,86.6,11.22,86.6,9.4ZM84.59,8h1.13v4.9H84.59ZM80.11,8h3.71v.91H81.25v1.3h2.27v.91H81.25v1.78H80.11Zm-25,20.31a1.7,1.7,0,0,0,1.38-.74l1.34,1.2A3.39,3.39,0,0,1,55,30a3.3,3.3,0,1,1,0-6.59,3.39,3.39,0,0,1,2.82,1.26l-1.34,1.2a1.7,1.7,0,0,0-1.38-.74,1.43,1.43,0,0,0-1.47,1.58A1.43,1.43,0,0,0,55.1,28.27ZM57,21.85H54.5l-1.58-2.09-.47.53v1.56H50.36V15.54h2.09v2.29l2.07-2.29h2.31l-2.52,2.78,2.2,2.93L59,15.54h2.09l2.75,6.31H61.65l-.43-1.1H58.83l-.42,1.1Zm7.68,8H62.52V27.52h-2v2.33H58.43V23.54h2.13v2.24h2V23.54h2.12Zm6.15-4.7h-3v1.08h2.63v1.6H67.79v2H65.67V23.54h5.12Zm-3.5-3.3H64.18V15.54h3.11c2.11,0,3.55,1.2,3.55,3.16S69.4,21.85,67.29,21.85Zm6.45,0H71.62V15.54h2.12Zm2.55,8H74.16V23.54h2.13ZM73.9,10.41A2.68,2.68,0,1,1,76.58,13,2.53,2.53,0,0,1,73.9,10.41Zm5,5.13,1.29,2.18,1.3-2.18h2l-2.38,4v2.29H79.09V19.53l-2.38-4Zm3.33,14.31h-5V23.54h2.13V28.2h2.84Zm3.24-14.31h2.09l2.76,6.31h-2.2l-.42-1.1h-2.4l-.42,1.1H82.77ZM85,29.85H82.87V23.54H85Zm4.77,0H87.64V27.53l-2.38-4H87.5l1.29,2.18,1.3-2.18h2l-2.38,4Zm5.68.14A3.3,3.3,0,1,1,99,26.7,3.32,3.32,0,0,1,95.44,30ZM99,19l-1.36,2.31h-.94l-1.37-2.21v2.78H93.41V15.54h1.74l2.06,3.36,2-3.36H101l0,6.31H99Zm4.31,10.88H99.77V23.54h3.37c1.74,0,2.54.7,2.54,1.65a1.46,1.46,0,0,1-.87,1.36A1.6,1.6,0,0,1,106,28.11C106,29.21,105.05,29.85,103.32,29.85ZM110,30a3.3,3.3,0,1,1,3.56-3.29A3.33,3.33,0,0,1,110,30Zm1.77-8.14,2.76-6.31h2.08l2.76,6.31h-2.2l-.42-1.1h-2.4l-.42,1.1Zm6.33,8-1.07-1.59h-.58v1.59h-2.12V23.54h3c1.76,0,2.87.92,2.87,2.38a2.1,2.1,0,0,1-1.18,2l1.32,2Zm8.17,0h-5.24V23.54h5.13v1.61h-3v.74h2.67v1.53h-2.67v.82h3.15Zm3.17.14a5.64,5.64,0,0,1-2.75-.65l.69-1.55a4.2,4.2,0,0,0,2.08.58c.6,0,.82-.13.82-.34,0-.79-3.49-.15-3.49-2.5,0-1.18,1-2.13,2.94-2.13a5,5,0,0,1,2.37.55l-.63,1.54a3.84,3.84,0,0,0-1.76-.47c-.62,0-.82.18-.82.4,0,.75,3.49.12,3.49,2.45C132.41,29,131.42,30,129.47,30Zm9.78-.14h-2.13V27.52h-2v2.33H133V23.54h2.13v2.24h2V23.54h2.13ZM137.4,22a3.3,3.3,0,1,1,0-6.59,3.39,3.39,0,0,1,2.82,1.26l-1.34,1.2a1.7,1.7,0,0,0-1.37-.74A1.44,1.44,0,0,0,136,18.7a1.43,1.43,0,0,0,1.48,1.57,1.7,1.7,0,0,0,1.37-.74l1.34,1.2A3.39,3.39,0,0,1,137.4,22Zm8.83,7.86-1-3.37-1.07,3.37h-2.28l-2-6.31H142l1.1,3.59,1.16-3.59h2l1.1,3.63,1.16-3.63h2l-2,6.31Zm9.25,0-.42-1.1h-2.4l-.42,1.1h-2.16l2.75-6.31h2.09l2.76,6.31Zm3.15-8.57-1.37-2.21v2.78h-1.93V15.54h1.74l2.05,3.36,2-3.36h1.75l0,6.31H161l0-2.88-1.36,2.31Zm5.14,10.31h-2a7.27,7.27,0,0,1-1.19-4.21,7.27,7.27,0,0,1,1.19-4.21h2a8.28,8.28,0,0,0,0,8.42Zm2.35-1.74h-2V24.92h2Zm-1-5.32a1,1,0,1,1,0-2.07c.75,0,1.22.41,1.22,1A1.09,1.09,0,0,1,165.1,24.53Zm5.35,3.74a1.68,1.68,0,0,0,1.37-.74l1.35,1.2A3.43,3.43,0,0,1,170.34,30a3.3,3.3,0,1,1,0-6.59,3.43,3.43,0,0,1,2.83,1.26l-1.35,1.2a1.68,1.68,0,0,0-1.37-.74A1.44,1.44,0,0,0,169,26.7,1.43,1.43,0,0,0,170.45,28.27Zm5.18-12.73,1.1,3.59,1.16-3.59h2l1.1,3.63,1.16-3.63h2l-2,6.31h-2.27l-1-3.37-1.07,3.37h-2.28l-2-6.31ZM180,29.85h-2.13V27.52h-2v2.33h-2.12V23.54h2.12v2.24h2V23.54H180Zm6.14-4.7h-3v1.08h2.63v1.6h-2.63v2H181V23.54h5.12Zm2,6.44h-1.94a8.28,8.28,0,0,0,0-8.42h1.94a7.2,7.2,0,0,1,1.2,4.21A7.2,7.2,0,0,1,188.1,31.59Zm1-9.74-.43-1.1h-2.39l-.42,1.1h-2.16l2.75-6.31h2.09l2.75,6.31Z"
     fill="none"
     id="path1018" />
  <path
     d="M29.34,126a.71.71,0,0,0-.74.62h1.49A.72.72,0,0,0,29.34,126Z"
     fill="none"
     id="path1020" />
  <path
     d="M64.64,101.44c0,.22.19.36.5.36a.63.63,0,0,0,.64-.41v-.31h-.6C64.77,101.08,64.64,101.24,64.64,101.44Z"
     fill="none"
     id="path1022" />
  <path
     d="M51.92,62.44c0,.22.19.36.5.36a.63.63,0,0,0,.64-.41v-.3h-.6C52.05,62.09,51.92,62.24,51.92,62.44Z"
     fill="none"
     id="path1024" />
  <path
     d="M42.3,114.44c0,.22.19.36.49.36a.64.64,0,0,0,.65-.41v-.31h-.6C42.43,114.08,42.3,114.24,42.3,114.44Z"
     fill="none"
     id="path1026" />
  <path
     d="M52.63,101.44c0,.22.18.36.49.36a.64.64,0,0,0,.65-.41v-.31h-.6C52.76,101.08,52.63,101.24,52.63,101.44Z"
     fill="none"
     id="path1028" />
  <polygon
     points="137.51 9.07 136.73 10.95 138.28 10.95 137.51 9.07"
     fill="none"
     id="polygon1030" />
  <polygon
     points="130.07 17.63 129.46 19.22 130.69 19.22 130.07 17.63"
     fill="none"
     id="polygon1032" />
  <path
     d="M95.44,25.12A1.43,1.43,0,0,0,94,26.7a1.42,1.42,0,1,0,2.83,0A1.43,1.43,0,0,0,95.44,25.12Z"
     fill="none"
     id="path1034" />
  <polygon
     points="86.55 17.63 85.94 19.22 87.16 19.22 86.55 17.63"
     fill="none"
     id="polygon1036" />
  <path
     d="M83.67,87a.72.72,0,0,0-.75.62h1.49A.71.71,0,0,0,83.67,87Z"
     fill="none"
     id="path1038" />
  <polygon
     points="115.58 17.63 114.97 19.22 116.19 19.22 115.58 17.63"
     fill="none"
     id="polygon1040" />
  <path
     d="M110,25.12a1.43,1.43,0,0,0-1.41,1.58,1.42,1.42,0,1,0,2.82,0A1.43,1.43,0,0,0,110,25.12Z"
     fill="none"
     id="path1042" />
  <path
     d="M229,37H11V49.65l.34-.41a.91.91,0,0,0,.73.43c.37,0,.56-.22.56-.65V47.15H11.25v-.73h2.28V49a1.27,1.27,0,0,1-1.41,1.45A1.66,1.66,0,0,1,11,50V62.65l.34-.41a.91.91,0,0,0,.73.43c.37,0,.56-.22.56-.65V60.15H11.25v-.73h2.28V62a1.27,1.27,0,0,1-1.41,1.45A1.66,1.66,0,0,1,11,63V75.65l.34-.41a.91.91,0,0,0,.73.43c.37,0,.56-.22.56-.65V73.15H11.25v-.73h2.28V75a1.27,1.27,0,0,1-1.41,1.45A1.66,1.66,0,0,1,11,76V88.65l.34-.41a.91.91,0,0,0,.73.43c.37,0,.56-.22.56-.65V86.15H11.25v-.73h2.28V88a1.27,1.27,0,0,1-1.41,1.45A1.66,1.66,0,0,1,11,89v9.41h3.37v.74H13.12v3.19h-.91V99.16H11v15.49l.34-.41a.91.91,0,0,0,.73.43c.37,0,.56-.22.56-.65v-1.87H11.25v-.73h2.28V114a1.27,1.27,0,0,1-1.41,1.45A1.66,1.66,0,0,1,11,115v9.41h3.37v.74H13.12v3.19h-.91v-3.19H11V130H229ZM165,50.35h2.81v.5H165Zm4.8,13v.5H167v-.5Zm-2.81,0v.5h-2.8v-.5Zm-4.79-13H165v.5h-2.8Zm2,13v.5h-2.8v-.5Zm-4.79-13h2.8v.5h-2.8Zm2,13v.5h-2.8v-.5Zm-4.79-13h2.8v.5h-2.8Zm2,13v.5h-2.8v-.5Zm-4.79-13h2.8v.5h-2.8Zm2,13v.5h-2.8v-.5Zm-4.79-13h2.8v.5h-2.8Zm2,13v.5h-2.81v-.5Zm-4.8-13h2.8v.5h-2.8Zm2,13v.5H147.3v-.5Zm-4.8-13h2.81v.5h-2.81Zm2,13v.5h-2.81v-.5Zm-4.8-13h2.81v.5H142.5Zm2,13v.5h-2.81v-.5Zm-4.8-13h2.81v.5h-2.81Zm2,13v.5h-2.81v-.5Zm-4.8-13h2.81v.5h-2.81Zm2,13v.5h-2.81v-.5Zm-4.8-13h2.81v.5h-2.81Zm2,13v.5h-2.81v-.5Zm-4.8-13h2.81v.5h-2.81Zm2,13v.5h-2.81v-.5Zm-4.8-13h2.81v.5h-2.81Zm2,13v.5h-2.81v-.5Zm-4.8-13h2.81v.5h-2.81Zm2,13v.5h-2.81v-.5Zm-4.8-13h2.81v.5h-2.81Zm2,13v.5H122v-.5Zm-4.8-13h2.81v.5H120Zm2,13v.5H119.2v-.5Zm-4.8-13H120v.5h-2.81Zm-49.42,50a.54.54,0,0,1-.55-.55.55.55,0,0,1,1.09,0A.53.53,0,0,1,67.79,100.38Zm.54,1.46a.55.55,0,1,1-1.09,0,.55.55,0,0,1,1.09,0ZM65.5,87.35a4,4,0,1,1,4,4A4,4,0,0,1,65.5,87.35Zm-.58,15c-.71,0-1.13-.39-1.13-.91s.38-.91,1.3-.91h.69c0-.37-.22-.59-.69-.59a1.48,1.48,0,0,0-.87.28l-.32-.61a2.3,2.3,0,0,1,1.31-.37c.92,0,1.45.43,1.45,1.34v1.73h-.82V102A1,1,0,0,1,64.92,102.39Zm-2.34,0h-.84l-.68-1.88-.7,1.88h-.85l-1.09-3h.83l.71,2,.74-2h.74l.72,2,.74-2h.77Zm.29,13v.5H60.06v-.5Zm-10-13c-.7,0-1.12-.39-1.12-.91s.37-.91,1.29-.91h.7c0-.37-.23-.59-.7-.59a1.48,1.48,0,0,0-.87.28l-.31-.61a2.29,2.29,0,0,1,1.3-.37c.92,0,1.45.43,1.45,1.34v1.73h-.81V102A1,1,0,0,1,52.9,102.39Zm-10.32,13c-.71,0-1.13-.39-1.13-.91s.37-.91,1.29-.91h.7c0-.37-.22-.59-.7-.59a1.48,1.48,0,0,0-.87.28l-.31-.61a2.29,2.29,0,0,1,1.3-.37c.92,0,1.46.43,1.46,1.34v1.73H43.5V115A1,1,0,0,1,42.58,115.39Zm1.08-13-1-1.19-.42.42v.77h-.87V98.18h.87v2.36l1.28-1.21h1l-1.26,1.28,1.37,1.74ZM42.19,72.91a.5.5,0,0,1-.54-.49.5.5,0,0,1,.54-.49.49.49,0,0,1,.55.47A.51.51,0,0,1,42.19,72.91Zm.44.42v3h-.87v-3Zm1.15,2a.53.53,0,0,1,.54.54.53.53,0,0,1-.54.55.54.54,0,0,1-.55-.55A.53.53,0,0,1,43.78,75.3Zm-.55-1.47a.53.53,0,0,1,.55-.54.52.52,0,0,1,.54.54.53.53,0,0,1-.54.55A.54.54,0,0,1,43.23,73.83Zm2.94-13.55a1.19,1.19,0,0,1,1.25,1.34v1.73h-.88v-1.6c0-.48-.22-.71-.61-.71s-.72.26-.72.82v1.49h-.88v-3h.84v.35A1.31,1.31,0,0,1,46.17,60.28Zm4,16.07v.5H47.38v-.5Zm-2.81,0v.5H44.57v-.5Zm-2.77,36h.9l.85,2,.85-2h.84l-1.36,3.2a1.25,1.25,0,0,1-1.25,1,1.39,1.39,0,0,1-.85-.27l.33-.63a.76.76,0,0,0,.49.2c.24,0,.38-.11.49-.38l0,0Zm2.66-10V102a1.22,1.22,0,0,1-.94.4A1.2,1.2,0,0,1,45,101V99.33h.88v1.58c0,.5.22.73.61.73s.7-.26.7-.82V99.33h.87v3ZM48,88.93h-.41L46.38,87v2.31h-.85V85.42h.75l1.47,2.44,1.45-2.44H50v3.93h-.85V87Zm.76,12.89L50.25,100h-1.5v-.67h2.61v.53l-1.54,1.81h1.59v.68h-2.7ZM52.37,61a1.44,1.44,0,0,0-.87.28l-.32-.61a2.29,2.29,0,0,1,1.3-.37c.92,0,1.46.43,1.46,1.34v1.73h-.82V63a1,1,0,0,1-.92.42c-.71,0-1.13-.39-1.13-.91s.37-.91,1.3-.91h.69C53.06,61.2,52.84,61,52.37,61Zm2.69,1.32a.53.53,0,0,1,.55.54.55.55,0,1,1-1.09,0A.53.53,0,0,1,55.06,62.3Zm-.54-1.47a.55.55,0,0,1,1.09,0,.55.55,0,1,1-1.09,0Zm1.29,15.52v.5H53v-.5Zm59,0v.5H112v-.5Zm-1.23-12.5v-.5h2.81v.5Zm0,0h-2.81v-.5h2.81ZM112,76.35v.5h-2.81v-.5Zm-1.23-12.5H108v-.5h2.81Zm-1.58,12.5v.5h-2.81v-.5ZM108,63.85h-2.81v-.5H108Zm-1.58,12.5v.5h-2.81v-.5Zm-1.23-12.5h-2.81v-.5h2.81Zm-1.58,12.5v.5h-2.81v-.5Zm-1.23-12.5h-2.8v-.5h2.8Zm-1.58,12.5v.5H98v-.5Zm-1.23-12.5h-2.8v-.5h2.8ZM98,76.35v.5H95.14v-.5Zm-1.23-12.5h-2.8v-.5h2.8Zm-1.58,12.5v.5H92.33v-.5Zm-1.23-12.5h-2.8v-.5h2.8Zm-1.58,12.5v.5H89.52v-.5ZM91.1,63.85H88.3v-.5h2.8Zm-1.58,12.5v.5H86.71v-.5Zm-1.23-12.5h-2.8v-.5h2.8Zm-1.58,12.5v.5h-2.8v-.5ZM83.8,88.69a1,1,0,0,0,.76-.29l.46.51a1.6,1.6,0,0,1-1.24.48,1.57,1.57,0,0,1-1.73-1.55,1.54,1.54,0,0,1,1.62-1.56,1.5,1.5,0,0,1,1.57,1.57,1.79,1.79,0,0,1,0,.23H82.94A.8.8,0,0,0,83.8,88.69ZM81,85.42h1l-1.63,1.75,1.73,2.18H81L79.74,87.8l-.53.55v1h-.9V85.42h.9v1.83Zm4.54-21.57H82.68v-.5h2.81ZM83.9,76.35v.5H81.1v-.5Zm-1.22-12.5H79.87v-.5h2.81Zm-1.59,12.5v.5h-2.8v-.5Zm-1.22-12.5H77.06v-.5h2.81Zm-1.59,12.5v.5h-2.8v-.5Zm-1.22-12.5H74.25v-.5h2.81Zm-1.59,12.5v.5h-2.8v-.5Zm-1.22-12.5H71.44v-.5h2.81Zm-1.58,12.5v.5H69.86v-.5Zm-1.23-12.5H68.63v-.5h2.81Zm-1.58,12.5v.5H67.05v-.5Zm-1.23-12.5H65.82v-.5h2.81Zm-1.58,12.5v.5H64.24v-.5Zm-1.23-12.5H63v-.5h2.81Zm-1.58,12.5v.5H61.43v-.5ZM63,63.85H60.2v-.5H63Zm-1.58,12.5v.5H58.62v-.5ZM60.2,63.85H57.39v-.5H60.2Zm-1.58,12.5v.5H55.81v-.5ZM58.11,98.4a.55.55,0,0,1-1.09,0,.5.5,0,0,1,.55-.49A.49.49,0,0,1,58.11,98.4Zm-1.79-.22v4.17h-.88V98.18ZM53,76.35v.5H50.19v-.5ZM50.61,87.84a1.54,1.54,0,0,1,1.61-1.56,1.5,1.5,0,0,1,1.57,1.57c0,.07,0,.16,0,.23H51.49a.82.82,0,0,0,.87.61,1,1,0,0,0,.76-.29l.46.51a1.61,1.61,0,0,1-1.25.48A1.56,1.56,0,0,1,50.61,87.84Zm1.5,24.45a.52.52,0,0,1,.55.54.55.55,0,1,1-1.09,0A.52.52,0,0,1,52.11,112.29Zm2.33,3.06h2.81v.5H54.44Zm2.69-13v-3H58v3Zm.12,13h2.81v.5H57.25Zm5.62,0h2.81v.5H62.87Zm7.24-13h2.81v.5H70.11Zm1.19,13h2.81v.5H71.3Zm1.62-12.5v-.5h2.81v.5Zm1.19,12.5h2.81v.5H74.11Zm1.62-12.5v-.5h2.81v.5Zm1.19,12.5h2.81v.5H76.92Zm1.62-12.5v-.5h2.81v.5Zm1.19,12.5h2.81v.5H79.73Zm2.11-12.44,1.85-5.29h.78l-1.85,5.29Zm.7,12.44h2.8v.5h-2.8Zm1-12.5v-.5h2.81v.5Zm1.78,12.5h2.8v.5h-2.8Zm1-12.5v-.5h2.81v.5Zm1.78,12.5H91v.5h-2.8Zm1-12.5v-.5H92v.5ZM91,115.35h2.8v.5H91Zm1-12.5v-.5h2.81v.5Zm1.78,12.5h2.8v.5h-2.8Zm2.3-12.44H95.3l1.85-5.29h.78Zm.5,12.44h2.81v.5H96.58Zm.45-12.5v-.5h2.81v.5Zm2.36,12.5h2.81v.5H99.39Zm.45-12.5v-.5h2.81v.5Zm2.36,12.5H105v.5H102.2Zm.45-12.5v-.5h2.81v.5Zm2.36,12.5h2.81v.5H105Zm.45-12.5v-.5h2.81v.5Zm2.36,12.5h2.81v.5h-2.81Zm.45-12.5v-.5h2.81v.5Zm2.36,12.5h2.81v.5h-2.81Zm.45-12.5v-.5h2.81v.5Zm2.36,12.5h2.81v.5h-2.81Zm.45-12.5v-.5h2.81v.5Zm2.36,12.5h2.81v.5h-2.81Zm.45-12.5v-.5h2.81v.5Zm.92-26h-2.81v-.5h2.81Zm-1.23-13v-.5h2.81v.5Zm-2-13.5h2.81v.5H114.4Zm-2.81,0h2.81v.5h-2.81Zm-2.81,0h2.81v.5h-2.81Zm-2.81,0h2.81v.5H106Zm-2.81,0H106v.5h-2.81Zm-2.81,0h2.81v.5h-2.81Zm-2.81,0h2.81v.5H97.54Zm-2.8,0h2.8v.5h-2.8Zm-2.81,0h2.8v.5h-2.8Zm-2.81,0h2.8v.5h-2.8Zm-2.81,0h2.8v.5h-2.8Zm-2.81,0h2.8v.5H83.5Zm-2.81,0H83.5v.5H80.69Zm-2.81,0h2.81v.5H77.88Zm-2.81,0h2.81v.5H75.07Zm-2.81,0h2.81v.5H72.26Zm-2.81,0h2.81v.5H69.45Zm-2.81,0h2.81v.5H66.64Zm-2.81,0h2.81v.5H63.83Zm-2.81,0h2.81v.5H61Zm-2.81,0H61v.5H58.21Zm-2.81,0h2.81v.5H55.4Zm-2.81,0H55.4v.5H52.59Zm-2.81,0h2.81v.5H49.78ZM48,62.82,49.54,61H48v-.67h2.61v.53l-1.54,1.82H50.7v.67H48Zm-.55-15.53a.52.52,0,0,1,.55.54.55.55,0,1,1-1.09,0A.52.52,0,0,1,47.45,47.29Zm0,2a.53.53,0,0,1,.55.54.55.55,0,1,1-1.09,0A.53.53,0,0,1,47.45,49.3Zm-2.57-2a1.56,1.56,0,1,1-1.66,1.56A1.56,1.56,0,0,1,44.88,47.28ZM43.54,61.62v1.73h-.82V63a1,1,0,0,1-.93.42c-.7,0-1.12-.39-1.12-.91s.37-.91,1.29-.91h.7c0-.37-.23-.59-.7-.59a1.48,1.48,0,0,0-.87.28l-.31-.61a2.29,2.29,0,0,1,1.3-.37C43,60.28,43.54,60.71,43.54,61.62ZM39,74.07v-.68h.47v-.73h.87v.73h.76v.68h-.76V75.3a.35.35,0,0,0,.38.4.53.53,0,0,0,.35-.12l.24.62a1.23,1.23,0,0,1-.71.19,1,1,0,0,1-1.13-1.08V74.07ZM41.2,47.28a1.56,1.56,0,1,1-1.66,1.56A1.56,1.56,0,0,1,41.2,47.28Zm-5-1.1h.88v2.36l1.28-1.21h1l-1.26,1.28,1.38,1.74H38.43l-1-1.19-.42.42v.77h-.88Zm.66,16.19.74-2h.74l.72,2,.73-2h.78l-1.1,3h-.84l-.68-1.88-.7,1.88h-.84l-1.09-3h.82Zm-.06,14c-.71,0-1.13-.39-1.13-.91s.37-.91,1.29-.91h.7c0-.37-.22-.59-.7-.59a1.48,1.48,0,0,0-.87.28l-.31-.61a2.29,2.29,0,0,1,1.3-.37c.92,0,1.46.43,1.46,1.34v1.73H37.7V76A1,1,0,0,1,36.78,76.39ZM33.84,61.17l1.73,2.18H34.5L33.25,61.8l-.53.56v1h-.91V59.42h.91v1.83l1.74-1.83h1Zm-1.2,38.16h.9l.85,2,.86-2h.84l-1.37,3.2a1.24,1.24,0,0,1-1.25,1,1.36,1.36,0,0,1-.84-.27l.32-.63a.76.76,0,0,0,.49.2c.24,0,.38-.11.5-.38v0Zm.08-24v1h-.91V72.42h.91v1.83l1.74-1.83h1l-1.63,1.75,1.73,2.18H34.5L33.25,74.8Zm-.94-28.93h.91v2.17c0,.74.33,1,.88,1s.87-.31.87-1V46.42h.9v2.2a1.78,1.78,0,1,1-3.56,0Zm-4,1.56a1.48,1.48,0,0,0-.87.28l-.31-.61a2.29,2.29,0,0,1,1.3-.37c.92,0,1.46.43,1.46,1.34v1.73h-.82V50a1,1,0,0,1-.92.42c-.71,0-1.13-.39-1.13-.91s.37-.91,1.29-.91h.7C28.49,48.2,28.27,48,27.79,48Zm0,13.59h.7c0-.37-.22-.59-.7-.59a1.48,1.48,0,0,0-.87.28l-.31-.61a2.29,2.29,0,0,1,1.3-.37c.92,0,1.46.43,1.46,1.34v1.73h-.82V63a1,1,0,0,1-.92.42c-.71,0-1.13-.39-1.13-.91S26.87,61.57,27.79,61.57Zm0,13h.7c0-.37-.22-.59-.7-.59a1.48,1.48,0,0,0-.87.28l-.31-.61a2.29,2.29,0,0,1,1.3-.37c.92,0,1.46.43,1.46,1.34v1.73h-.82V76a1,1,0,0,1-.92.42c-.71,0-1.13-.39-1.13-.91S26.87,74.57,27.79,74.57Zm.63,12.81a.54.54,0,0,1-.55-.55.53.53,0,0,1,.55-.54.52.52,0,0,1,.54.54A.53.53,0,0,1,28.42,87.38ZM29,88.84a.53.53,0,0,1-.54.55.54.54,0,0,1-.55-.55.53.53,0,0,1,.55-.54A.53.53,0,0,1,29,88.84ZM25,46.18h.88v4.17H25Zm0,13h.88v4.17H25Zm0,13h.88v4.17H25ZM25.72,87a1.48,1.48,0,0,0-.87.28l-.31-.61a2.29,2.29,0,0,1,1.3-.37c.92,0,1.45.43,1.45,1.34v1.73h-.82V89a1,1,0,0,1-.92.42c-.71,0-1.13-.39-1.13-.91s.38-.91,1.3-.91h.7C26.42,87.2,26.19,87,25.72,87ZM24,98.18h.87v1.46a1.37,1.37,0,0,1,1-.36,1.19,1.19,0,0,1,1.25,1.34v1.73h-.87v-1.6c0-.48-.23-.71-.61-.71s-.73.26-.73.82v1.49H24Zm1.84,13v4.17H25v-4.17ZM21,48a1.48,1.48,0,0,0-.87.28l-.31-.61a2.29,2.29,0,0,1,1.3-.37c.92,0,1.46.43,1.46,1.34v1.73H21.8V50a1,1,0,0,1-.92.42c-.71,0-1.13-.39-1.13-.91s.37-.91,1.29-.91h.7C21.74,48.2,21.52,48,21,48Zm0,13.59h.7c0-.37-.22-.59-.7-.59a1.48,1.48,0,0,0-.87.28l-.31-.61a2.29,2.29,0,0,1,1.3-.37c.92,0,1.46.43,1.46,1.34v1.73H21.8V63a1,1,0,0,1-.92.42c-.71,0-1.13-.39-1.13-.91S20.12,61.57,21,61.57Zm0,13h.7c0-.37-.22-.59-.7-.59a1.48,1.48,0,0,0-.87.28l-.31-.61a2.29,2.29,0,0,1,1.3-.37c.92,0,1.46.43,1.46,1.34v1.73H21.8V76a1,1,0,0,1-.92.42c-.71,0-1.13-.39-1.13-.91S20.12,74.57,21,74.57ZM19.73,87.26c0-.57.51-1,1.39-1a2.5,2.5,0,0,1,1.17.27l-.3.62a1.68,1.68,0,0,0-.87-.22c-.39,0-.56.12-.56.28,0,.51,1.83,0,1.83,1.2,0,.57-.53,1-1.43,1a2.66,2.66,0,0,1-1.31-.32l.29-.63a2.11,2.11,0,0,0,1,.29c.41,0,.56-.11.56-.27C21.55,88,19.73,88.47,19.73,87.26Zm.27,12v.81h-.2a.74.74,0,0,0-.8.84v1.43h-.88v-3H19v.4A1.2,1.2,0,0,1,20,99.28ZM16.06,47.33h.84v.35a1.31,1.31,0,0,1,1-.4,1.19,1.19,0,0,1,1.25,1.34v1.73h-.88v-1.6c0-.48-.22-.71-.61-.71s-.72.26-.72.82v1.49h-.88Zm0,13h.84v.35a1.31,1.31,0,0,1,1-.4,1.19,1.19,0,0,1,1.25,1.34v1.73h-.88v-1.6c0-.48-.22-.71-.61-.71s-.72.26-.72.82v1.49h-.88Zm0,13h.84v.35a1.31,1.31,0,0,1,1-.4,1.19,1.19,0,0,1,1.25,1.34v1.73h-.88v-1.6c0-.48-.22-.71-.61-.71s-.72.26-.72.82v1.49h-.88Zm0,13h.84v.35a1.31,1.31,0,0,1,1-.4,1.19,1.19,0,0,1,1.25,1.34v1.73h-.88v-1.6c0-.48-.22-.71-.61-.71s-.72.26-.72.82v1.49h-.88Zm1.26,14.29v1.73H16.5V102a1,1,0,0,1-.92.42c-.7,0-1.12-.39-1.12-.91s.37-.91,1.29-.91h.7c0-.37-.23-.59-.7-.59a1.48,1.48,0,0,0-.87.28l-.31-.61a2.29,2.29,0,0,1,1.3-.37C16.79,99.28,17.32,99.71,17.32,100.62ZM14.81,45.93a.49.49,0,0,1,.54.47.55.55,0,0,1-1.09,0A.5.5,0,0,1,14.81,45.93Zm.44,1.4v3h-.88v-3Zm-.44,11.6a.49.49,0,0,1,.54.47.55.55,0,0,1-1.09,0A.5.5,0,0,1,14.81,58.93Zm.44,1.4v3h-.88v-3Zm-.44,11.6a.49.49,0,0,1,.54.47.55.55,0,0,1-1.09,0A.5.5,0,0,1,14.81,71.93Zm.44,1.4v3h-.88v-3Zm-.44,11.6a.49.49,0,0,1,.54.47.55.55,0,0,1-1.09,0A.5.5,0,0,1,14.81,84.93Zm-.44,4.42v-3h.88v3Zm.44,21.58a.49.49,0,0,1,.54.47.55.55,0,0,1-1.09,0A.5.5,0,0,1,14.81,110.93Zm-.44,4.42v-3h.88v3Zm3,13H16.5V128a1,1,0,0,1-.92.42c-.7,0-1.12-.39-1.12-.91s.37-.91,1.29-.91h.7c0-.37-.23-.59-.7-.59a1.48,1.48,0,0,0-.87.28l-.31-.61a2.29,2.29,0,0,1,1.3-.37c.92,0,1.45.43,1.45,1.34ZM17.66,113c-.42,0-.72.26-.72.82v1.49h-.88v-3h.84v.35a1.31,1.31,0,0,1,1-.4,1.19,1.19,0,0,1,1.25,1.34v1.73h-.88v-1.6C18.27,113.27,18.05,113,17.66,113Zm2.34,13h-.2a.74.74,0,0,0-.8.84v1.43h-.88v-3H19v.4a1.2,1.2,0,0,1,1-.45Zm-.25-11.61c0-.53.37-.91,1.29-.91h.7c0-.37-.22-.59-.7-.59a1.48,1.48,0,0,0-.87.28l-.31-.61a2.29,2.29,0,0,1,1.3-.37c.92,0,1.46.43,1.46,1.34v1.73H21.8V115a1,1,0,0,1-.92.42C20.17,115.39,19.75,115,19.75,114.48Zm3.68,12.6H21.15a.8.8,0,0,0,.86.61,1,1,0,0,0,.76-.29l.47.51a1.63,1.63,0,0,1-1.25.48,1.56,1.56,0,0,1-1.72-1.55,1.54,1.54,0,0,1,1.61-1.56,1.5,1.5,0,0,1,1.57,1.57A1.79,1.79,0,0,1,23.43,127.08Zm0-26H21.15a.8.8,0,0,0,.86.61,1,1,0,0,0,.76-.29l.47.51a1.63,1.63,0,0,1-1.25.48,1.56,1.56,0,0,1-1.72-1.55,1.54,1.54,0,0,1,1.61-1.56,1.5,1.5,0,0,1,1.57,1.57A1.79,1.79,0,0,1,23.43,101.08Zm.37-11.73h-.87v-3h.87Zm-.43-3.44a.51.51,0,0,1-.55-.49.5.5,0,0,1,.55-.49.49.49,0,0,1,.54.47A.51.51,0,0,1,23.37,85.91Zm3.75,42.44h-.87v-1.6c0-.48-.23-.71-.61-.71s-.73.26-.73.82v1.49H24v-4.17h.87v1.46a1.37,1.37,0,0,1,1-.36,1.19,1.19,0,0,1,1.25,1.34Zm-.62-13.87c0-.53.37-.91,1.29-.91h.7c0-.37-.22-.59-.7-.59a1.48,1.48,0,0,0-.87.28l-.31-.61a2.29,2.29,0,0,1,1.3-.37c.92,0,1.46.43,1.46,1.34v1.73h-.82V115a1,1,0,0,1-.92.42C26.92,115.39,26.5,115,26.5,114.48Zm4.39,12.6H28.61a.8.8,0,0,0,.86.61,1,1,0,0,0,.76-.29l.47.51a1.61,1.61,0,0,1-1.25.48,1.56,1.56,0,0,1-1.72-1.55,1.54,1.54,0,0,1,1.61-1.56,1.5,1.5,0,0,1,1.57,1.57A1.79,1.79,0,0,1,30.89,127.08Zm0-26H28.61a.8.8,0,0,0,.86.61,1,1,0,0,0,.76-.29l.47.51a1.61,1.61,0,0,1-1.25.48,1.56,1.56,0,0,1-1.72-1.55,1.54,1.54,0,0,1,1.61-1.56,1.5,1.5,0,0,1,1.57,1.57A1.79,1.79,0,0,1,30.89,101.08Zm1.53,10.34.88,2.76.93-2.76h.84l.9,2.78.92-2.78h.87l-1.29,3.93h-1l-.86-2.66-.89,2.66h-1l-1.29-3.93Zm5-11.44a1.48,1.48,0,0,0-.87.28l-.32-.61a2.32,2.32,0,0,1,1.31-.37c.92,0,1.45.43,1.45,1.34v1.73H38.2V102a1,1,0,0,1-.92.42c-.71,0-1.13-.39-1.13-.91s.38-.91,1.3-.91h.7C38.15,100.2,37.92,100,37.45,100Zm-2.73,28.55a1.24,1.24,0,0,1-1.25.95,1.36,1.36,0,0,1-.84-.27l.32-.63a.76.76,0,0,0,.49.2c.24,0,.38-.11.5-.38v0l-1.31-3h.9l.85,2,.86-2h.84Zm4.3-.18H38.2V128a1,1,0,0,1-.92.42c-.71,0-1.13-.39-1.13-.91s.38-.91,1.3-.91h.7c0-.37-.23-.59-.7-.59a1.48,1.48,0,0,0-.87.28l-.32-.61a2.32,2.32,0,0,1,1.31-.37c.92,0,1.45.43,1.45,1.34Zm.12-13h-.88v-3h.88Zm-.44-3.44a.51.51,0,0,1-.55-.49.5.5,0,0,1,.55-.49.49.49,0,0,1,.54.47A.51.51,0,0,1,38.7,111.91Zm2.13,3.44H40v-4.17h.88Zm-3.47-24a4,4,0,1,1,4-4A4,4,0,0,1,37.36,91.36Zm6.3,37-1-1.19-.42.42v.77h-.87v-4.17h.87v2.36l1.28-1.21h1l-1.26,1.28,1.37,1.74Zm2.67,0A1.2,1.2,0,0,1,45,127v-1.71h.88v1.58c0,.5.22.73.61.73s.7-.26.7-.82v-1.49h.87v3h-.83V128A1.22,1.22,0,0,1,46.33,128.39Zm3.5,0a1,1,0,0,1-1.13,1.14,1.29,1.29,0,0,1-.71-.17l.24-.63a.62.62,0,0,0,.37.11c.22,0,.36-.14.36-.44v-3h.87Zm-.43-3.43a.51.51,0,0,1-.55-.49.5.5,0,0,1,.55-.49.49.49,0,0,1,.54.47A.51.51,0,0,1,49.4,124.91Zm-.15-9.52c-.71,0-1.13-.39-1.13-.91s.37-.91,1.3-.91h.69c0-.37-.22-.59-.69-.59a1.49,1.49,0,0,0-.88.28l-.31-.61a2.29,2.29,0,0,1,1.3-.37c.92,0,1.46.43,1.46,1.34v1.73h-.82V115A1,1,0,0,1,49.25,115.39Zm2.27,13h-.87v-3h.87Zm-.44-3.44a.5.5,0,0,1-.54-.49.5.5,0,0,1,.54-.49.49.49,0,0,1,.55.47A.51.51,0,0,1,51.08,124.91Zm.49-10.07a.55.55,0,0,1,1.09,0,.55.55,0,1,1-1.09,0Zm3.81,13.51h-.83V128a1.24,1.24,0,0,1-.94.4A1.2,1.2,0,0,1,52.32,127v-1.71h.88v1.58c0,.5.22.73.61.73s.69-.26.69-.82v-1.49h.88Zm3.91,0h-.88v-1.6c0-.48-.23-.71-.61-.71s-.73.26-.73.82v1.49H56.2v-3H57v.35a1.32,1.32,0,0,1,1-.4,1.19,1.19,0,0,1,1.26,1.34Zm3.94-.51a1.48,1.48,0,0,1-1.69,1.64,2.55,2.55,0,0,1-1.49-.41l.35-.63a1.8,1.8,0,0,0,1.07.34c.61,0,.88-.28.88-.82v-.13a1.24,1.24,0,0,1-1,.37,1.46,1.46,0,1,1,0-2.92,1.22,1.22,0,0,1,1,.43v-.38h.83Zm3.49.51H65.9V128a1,1,0,0,1-.92.42c-.71,0-1.13-.39-1.13-.91s.38-.91,1.3-.91h.69c0-.37-.22-.59-.69-.59a1.48,1.48,0,0,0-.87.28l-.32-.61a2.3,2.3,0,0,1,1.31-.37c.92,0,1.45.43,1.45,1.34Zm1.13,0a.54.54,0,0,1-.55-.55.55.55,0,0,1,1.09,0A.53.53,0,0,1,67.85,128.39Zm0-2a.54.54,0,0,1-.55-.55.55.55,0,0,1,1.09,0A.53.53,0,0,1,67.85,126.38Zm.64-10.53H65.68v-.5h2.81Zm0-.5H71.3v.5H68.49ZM73,128.85H70.17v-.5H73Zm2.81,0H73v-.5h2.81Zm2.81,0H75.79v-.5H78.6Zm2.81,0H78.6v-.5h2.81Zm.49.06,1.85-5.29h.79l-1.86,5.29Zm4.54-.06H83.63v-.5h2.81Zm2.81,0H86.44v-.5h2.81Zm2.81,0H89.25v-.5h2.81Zm2.81,0H92.06v-.5h2.81Zm.49.06,1.85-5.29H98l-1.85,5.29Zm4.54-.06H97.09v-.5H99.9Zm2.81,0H99.9v-.5h2.81Zm2.81,0h-2.81v-.5h2.81Zm2.81,0h-2.81v-.5h2.81Zm2.81,0h-2.81v-.5h2.81Zm2.81,0h-2.81v-.5H114Zm2.81,0H114v-.5h2.81Zm2.81,0h-2.81v-.5h2.81Zm.86-52h-2.81v-.5h2.81Zm2.81,0h-2.81v-.5h2.81Zm2.81,0h-2.81v-.5h2.81Zm2.81,0h-2.81v-.5h2.81Zm2.81,0h-2.81v-.5h2.81Zm2.81,0h-2.81v-.5h2.81Zm2.81,0h-2.81v-.5h2.81Zm2.8,0h-2.8v-.5h2.8Zm2.81,0h-2.8v-.5h2.8Zm2.81,0h-2.8v-.5h2.8Zm2.81,0h-2.8v-.5h2.8Zm2.81,0h-2.8v-.5h2.8Zm2.81,0h-2.81v-.5h2.81Zm2.81,0h-2.81v-.5H157Zm2.81,0H157v-.5h2.81Zm2.81,0h-2.81v-.5h2.81Zm2.81,0h-2.81v-.5h2.81Zm2.81,0h-2.81v-.5h2.81ZM183,89H170V76.85h-1.81v-.5H170V63.85h-.23v-.5H170V50.85h-2.22v-.5H170V42h13Z"
     fill="none"
     id="path1044" />
  <path
     d="M103.54,25.5c0-.31-.21-.47-.69-.47h-1V26h1C103.33,26,103.54,25.8,103.54,25.5Z"
     fill="none"
     id="path1046" />
  <path
     d="M103.14,27.37h-1.28v1h1.28c.47,0,.7-.17.7-.49S103.61,27.37,103.14,27.37Z"
     fill="none"
     id="path1048" />
  <path
     d="M117.26,25.18h-.78v1.48h.78c.58,0,.86-.28.86-.74S117.84,25.18,117.26,25.18Z"
     fill="none"
     id="path1050" />
  <path
     d="M21.1,75.8a.63.63,0,0,0,.64-.41v-.31h-.6c-.41,0-.54.16-.54.36S20.79,75.8,21.1,75.8Z"
     fill="none"
     id="path1052" />
  <path
     d="M61.57,126a.74.74,0,1,0,.8.74A.74.74,0,0,0,61.57,126Z"
     fill="none"
     id="path1054" />
  <path
     d="M15.31,101.44c0,.22.18.36.49.36a.65.65,0,0,0,.65-.41v-.31h-.6C15.44,101.08,15.31,101.24,15.31,101.44Z"
     fill="none"
     id="path1056" />
  <path
     d="M20.6,49.44c0,.22.19.36.5.36a.63.63,0,0,0,.64-.41v-.3h-.6C20.73,49.09,20.6,49.24,20.6,49.44Z"
     fill="none"
     id="path1058" />
  <path
     d="M21.1,62.8a.63.63,0,0,0,.64-.41v-.3h-.6c-.41,0-.54.15-.54.35S20.79,62.8,21.1,62.8Z"
     fill="none"
     id="path1060" />
  <path
     d="M15.31,127.44c0,.22.18.36.49.36a.65.65,0,0,0,.65-.41v-.31h-.6C15.44,127.08,15.31,127.24,15.31,127.44Z"
     fill="none"
     id="path1062" />
  <path
     d="M21.74,114.39v-.31h-.6c-.41,0-.54.16-.54.36s.19.36.5.36A.63.63,0,0,0,21.74,114.39Z"
     fill="none"
     id="path1064" />
  <path
     d="M21.88,126a.71.71,0,0,0-.74.62h1.48A.71.71,0,0,0,21.88,126Z"
     fill="none"
     id="path1066" />
  <path
     d="M21.88,100a.71.71,0,0,0-.74.62h1.48A.71.71,0,0,0,21.88,100Z"
     fill="none"
     id="path1068" />
  <path
     d="M49,114.44c0,.22.19.36.5.36a.63.63,0,0,0,.64-.41v-.31h-.6C49.1,114.08,49,114.24,49,114.44Z"
     fill="none"
     id="path1070" />
  <path
     d="M64.71,127.44c0,.22.18.36.49.36a.63.63,0,0,0,.64-.41v-.31h-.6C64.83,127.08,64.71,127.24,64.71,127.44Z"
     fill="none"
     id="path1072" />
  <path
     d="M41.2,49.68a.84.84,0,1,0-.78-.84A.77.77,0,0,0,41.2,49.68Z"
     fill="none"
     id="path1074" />
  <path
     d="M41.52,62.44c0,.22.18.36.49.36a.64.64,0,0,0,.65-.41v-.3h-.6C41.65,62.09,41.52,62.24,41.52,62.44Z"
     fill="none"
     id="path1076" />
  <path
     d="M44.88,49.68a.84.84,0,1,0-.78-.84A.77.77,0,0,0,44.88,49.68Z"
     fill="none"
     id="path1078" />
  <path
     d="M36.5,75.44c0,.22.19.36.5.36a.63.63,0,0,0,.64-.41v-.31H37C36.63,75.08,36.5,75.24,36.5,75.44Z"
     fill="none"
     id="path1080" />
  <path
     d="M27.35,49.44c0,.22.19.36.5.36a.63.63,0,0,0,.64-.41v-.3h-.6C27.48,49.09,27.35,49.24,27.35,49.44Z"
     fill="none"
     id="path1082" />
  <path
     d="M52.23,87a.71.71,0,0,0-.75.62H53A.71.71,0,0,0,52.23,87Z"
     fill="none"
     id="path1084" />
  <path
     d="M27.85,75.8a.63.63,0,0,0,.64-.41v-.31h-.6c-.41,0-.54.16-.54.36S27.54,75.8,27.85,75.8Z"
     fill="none"
     id="path1086" />
  <path
     d="M25.28,88.44c0,.22.18.36.49.36a.65.65,0,0,0,.65-.41v-.31h-.6C25.41,88.08,25.28,88.24,25.28,88.44Z"
     fill="none"
     id="path1088" />
  <path
     d="M27.85,62.8a.63.63,0,0,0,.64-.41v-.3h-.6c-.41,0-.54.15-.54.35S27.54,62.8,27.85,62.8Z"
     fill="none"
     id="path1090" />
  <rect
     x="11"
     width="218"
     height="7"
     fill="none"
     id="rect1092" />
  <rect
     x="229"
     width="12"
     height="7"
     fill="none"
     id="rect1094" />
  <polygon
     points="102.15 9.07 101.37 10.95 102.93 10.95 102.15 9.07"
     fill="none"
     id="polygon1096" />
  <polygon
     points="186.84 19.22 188.07 19.22 187.46 17.63 186.84 19.22"
     fill="none"
     id="polygon1098" />
  <path
     d="M27.35,114.44c0,.22.19.36.5.36a.63.63,0,0,0,.64-.41v-.31h-.6C27.48,114.08,27.35,114.24,27.35,114.44Z"
     fill="none"
     id="path1100" />
  <rect
     x="229"
     y="7"
     width="12"
     height="30"
     fill="none"
     id="rect1102" />
  <polygon
     points="60.03 17.63 59.41 19.22 60.64 19.22 60.03 17.63"
     fill="none"
     id="polygon1104" />
  <rect
     x="229"
     y="130"
     width="12"
     height="12"
     fill="none"
     id="rect1106" />
  <path
     d="M67.2,17.2h-.89v3h.89a1.38,1.38,0,0,0,1.5-1.49A1.39,1.39,0,0,0,67.2,17.2Z"
     fill="none"
     id="path1108" />
  <rect
     x="11"
     y="130"
     width="218"
     height="12"
     fill="none"
     id="rect1110" />
  <rect
     x="229"
     y="37"
     width="12"
     height="93"
     fill="none"
     id="rect1112" />
  <polygon
     points="151.17 17.63 150.56 19.22 151.78 19.22 151.17 17.63"
     fill="none"
     id="polygon1114" />
  <path
     d="M76.58,8.84a1.5,1.5,0,0,0-1.53,1.57,1.53,1.53,0,1,0,3.06,0A1.49,1.49,0,0,0,76.58,8.84Z"
     fill="none"
     id="path1116" />
  <polygon
     points="114.64 9.07 113.86 10.95 115.42 10.95 114.64 9.07"
     fill="none"
     id="polygon1118" />
  <path
     d="M110.5,9.74c0-.54-.35-.86-1-.86h-.93v1.71h.93C110.15,10.59,110.5,10.27,110.5,9.74Z"
     fill="none"
     id="path1120" />
  <polygon
     points="167.01 17.63 166.4 19.22 167.62 19.22 167.01 17.63"
     fill="none"
     id="polygon1122" />
  <polygon
     points="54.31 18.32 56.83 15.54 54.52 15.54 52.45 17.83 52.45 15.54 50.36 15.54 50.36 21.85 52.45 21.85 52.45 20.29 52.92 19.76 54.5 21.85 56.24 21.85 56.51 21.25 54.31 18.32"
     fill="#067fc1"
     id="polygon1124" />
  <path
     d="M61.22,20.75l.43,1.1h2.19l-2.75-6.31H59l-2.49,5.71.45.6h1.45l.42-1.1ZM60,17.63l.61,1.59H59.41Z"
     fill="#067fc1"
     id="path1126" />
  <polygon
     points="56.24 21.85 56.96 21.85 56.51 21.25 56.24 21.85"
     fill="#067fc1"
     id="polygon1128" />
  <path
     d="M67.29,15.54H64.18v6.31h3.11c2.11,0,3.55-1.2,3.55-3.15S69.4,15.54,67.29,15.54Zm-.09,4.65h-.89v-3h.89a1.39,1.39,0,0,1,1.5,1.5A1.38,1.38,0,0,1,67.2,20.19Z"
     fill="#067fc1"
     id="path1130" />
  <rect
     x="71.62"
     y="15.54"
     width="2.13"
     height="6.3"
     fill="#067fc1"
     id="rect1132" />
  <polygon
     points="79.09 21.85 81.21 21.85 81.21 19.56 83.59 15.54 81.54 15.54 80.24 17.72 78.95 15.54 76.71 15.54 79.09 19.53 79.09 21.85"
     fill="#067fc1"
     id="polygon1134" />
  <path
     d="M85.35,20.75h2.4l.42,1.1h2.2l-2.76-6.31H85.52l-2.75,6.31h2.16Zm1.2-3.12.61,1.59H85.94Z"
     fill="#067fc1"
     id="path1136" />
  <polygon
     points="100.95 15.54 99.2 15.54 97.2 18.9 95.15 15.54 93.41 15.54 93.41 21.85 95.34 21.85 95.34 19.07 96.71 21.28 97.65 21.28 99.02 18.98 99.03 21.85 100.97 21.85 100.95 15.54"
     fill="#067fc1"
     id="polygon1138" />
  <polygon
     points="103.76 15.54 101.57 15.54 103.58 21.85 105.86 21.85 106.94 18.48 107.95 21.85 110.23 21.85 112.25 15.54 110.23 15.54 109.07 19.17 107.97 15.54 106.02 15.54 104.85 19.13 103.76 15.54"
     fill="#067fc1"
     id="polygon1140" />
  <path
     d="M116.78,20.75l.42,1.1h2.2l-2.76-6.31h-2.08l-2.76,6.31H114l.42-1.1Zm-1.2-3.12.61,1.59H115Z"
     fill="#067fc1"
     id="path1142" />
  <polygon
     points="121.81 18.98 124.2 21.85 125.95 21.85 125.95 15.54 123.88 15.54 123.88 18.41 121.48 15.54 119.74 15.54 119.74 21.85 121.81 21.85 121.81 18.98"
     fill="#067fc1"
     id="polygon1144" />
  <path
     d="M128.88,20.75h2.39l.42,1.1h2.2l-2.76-6.31h-2.08l-2.76,6.31h2.16Zm1.19-3.12.61,1.59h-1.22Z"
     fill="#067fc1"
     id="path1146" />
  <path
     d="M138.88,19.53a1.7,1.7,0,0,1-1.37.74A1.43,1.43,0,0,1,136,18.7a1.44,1.44,0,0,1,1.48-1.58,1.7,1.7,0,0,1,1.37.74l1.34-1.2a3.39,3.39,0,0,0-2.82-1.26,3.3,3.3,0,1,0,0,6.59,3.39,3.39,0,0,0,2.82-1.26Z"
     fill="#067fc1"
     id="path1148" />
  <polygon
     points="147.05 21.85 147.05 15.54 144.92 15.54 144.92 17.78 142.96 17.78 142.96 15.54 140.84 15.54 140.84 21.85 142.96 21.85 142.96 19.52 144.92 19.52 144.92 21.85 147.05 21.85"
     fill="#067fc1"
     id="polygon1150" />
  <path
     d="M150,20.75h2.4l.42,1.1H155l-2.76-6.31h-2.09l-2.75,6.31h2.16Zm1.2-3.12.61,1.59h-1.22Z"
     fill="#067fc1"
     id="path1152" />
  <polygon
     points="160.95 21.85 162.89 21.85 162.87 15.54 161.12 15.54 159.13 18.9 157.07 15.54 155.32 15.54 155.32 21.85 157.26 21.85 157.26 19.07 158.63 21.28 159.57 21.28 160.94 18.98 160.95 21.85"
     fill="#067fc1"
     id="polygon1154" />
  <path
     d="M163.23,21.85h2.16l.42-1.1h2.4l.42,1.1h2.2l-2.76-6.31H166ZM167,17.63l.61,1.59H166.4Z"
     fill="#067fc1"
     id="path1156" />
  <polygon
     points="177.74 21.85 178.81 18.48 179.82 21.85 182.1 21.85 184.12 15.54 182.1 15.54 180.94 19.17 179.84 15.54 177.89 15.54 176.73 19.13 175.63 15.54 173.44 15.54 175.46 21.85 177.74 21.85"
     fill="#067fc1"
     id="polygon1158" />
  <path
     d="M186.43,15.54l-2.75,6.31h2.16l.42-1.1h2.39l.43,1.1h2.19l-2.75-6.31Zm.41,3.68.62-1.59.61,1.59Z"
     fill="#067fc1"
     id="path1160" />
  <path
     d="M55.1,25.12a1.7,1.7,0,0,1,1.38.74l1.34-1.2A3.39,3.39,0,0,0,55,23.4,3.3,3.3,0,1,0,55,30a3.39,3.39,0,0,0,2.82-1.26l-1.34-1.2a1.7,1.7,0,0,1-1.38.74,1.43,1.43,0,0,1-1.47-1.57A1.43,1.43,0,0,1,55.1,25.12Z"
     fill="#067fc1"
     id="path1162" />
  <polygon
     points="62.52 25.78 60.56 25.78 60.56 23.55 58.43 23.55 58.43 29.85 60.56 29.85 60.56 27.52 62.52 27.52 62.52 29.85 64.64 29.85 64.64 23.55 62.52 23.55 62.52 25.78"
     fill="#067fc1"
     id="polygon1164" />
  <polygon
     points="65.67 29.85 67.79 29.85 67.79 27.83 70.42 27.83 70.42 26.23 67.79 26.23 67.79 25.15 70.79 25.15 70.79 23.55 65.67 23.55 65.67 29.85"
     fill="#067fc1"
     id="polygon1166" />
  <rect
     x="74.16"
     y="23.54"
     width="2.13"
     height="6.3"
     fill="#067fc1"
     id="rect1168" />
  <polygon
     points="79.44 23.55 77.31 23.55 77.31 29.85 82.28 29.85 82.28 28.2 79.44 28.2 79.44 23.55"
     fill="#067fc1"
     id="polygon1170" />
  <rect
     x="82.87"
     y="23.54"
     width="2.13"
     height="6.3"
     fill="#067fc1"
     id="rect1172" />
  <polygon
     points="90.09 23.55 88.79 25.72 87.5 23.55 85.26 23.55 87.64 27.53 87.64 29.85 89.76 29.85 89.76 27.56 92.14 23.55 90.09 23.55"
     fill="#067fc1"
     id="polygon1174" />
  <path
     d="M95.44,23.4A3.3,3.3,0,1,0,99,26.7,3.32,3.32,0,0,0,95.44,23.4Zm0,4.87A1.43,1.43,0,0,1,94,26.7a1.42,1.42,0,1,1,2.83,0A1.43,1.43,0,0,1,95.44,28.27Z"
     fill="#067fc1"
     id="path1176" />
  <path
     d="M104.81,26.55a1.46,1.46,0,0,0,.87-1.36c0-1-.8-1.65-2.54-1.65H99.77v6.31h3.55c1.73,0,2.66-.64,2.66-1.74A1.6,1.6,0,0,0,104.81,26.55Zm-3-1.52h1c.48,0,.69.16.69.47s-.21.47-.69.47h-1Zm1.28,3.33h-1.28v-1h1.28c.47,0,.7.17.7.5S103.61,28.36,103.14,28.36Z"
     fill="#067fc1"
     id="path1178" />
  <path
     d="M110,23.4a3.3,3.3,0,1,0,3.56,3.3A3.33,3.33,0,0,0,110,23.4Zm0,4.87a1.43,1.43,0,0,1-1.41-1.57,1.42,1.42,0,1,1,2.82,0A1.43,1.43,0,0,1,110,28.27Z"
     fill="#067fc1"
     id="path1180" />
  <path
     d="M120.26,25.92c0-1.46-1.11-2.38-2.87-2.38h-3v6.31h2.12V28.26h.58l1.07,1.59h2.27l-1.32-2A2.1,2.1,0,0,0,120.26,25.92Zm-3,.74h-.78V25.18h.78c.58,0,.86.28.86.74S117.84,26.66,117.26,26.66Z"
     fill="#067fc1"
     id="path1182" />
  <polygon
     points="123.15 27.42 125.82 27.42 125.82 25.89 123.15 25.89 123.15 25.15 126.19 25.15 126.19 23.55 121.06 23.55 121.06 29.85 126.3 29.85 126.3 28.24 123.15 28.24 123.15 27.42"
     fill="#067fc1"
     id="polygon1184" />
  <path
     d="M128.92,25.42c0-.22.2-.4.82-.4a3.84,3.84,0,0,1,1.76.47l.63-1.54a5,5,0,0,0-2.37-.55c-2,0-2.94,1-2.94,2.13,0,2.35,3.49,1.71,3.49,2.5,0,.21-.22.34-.82.34a4.2,4.2,0,0,1-2.08-.58l-.69,1.55a5.64,5.64,0,0,0,2.75.65c1.95,0,2.94-1,2.94-2.12C132.41,25.54,128.92,26.17,128.92,25.42Z"
     fill="#067fc1"
     id="path1186" />
  <polygon
     points="137.12 25.78 135.16 25.78 135.16 23.55 133.03 23.55 133.03 29.85 135.16 29.85 135.16 27.52 137.12 27.52 137.12 29.85 139.25 29.85 139.25 23.55 137.12 23.55 137.12 25.78"
     fill="#067fc1"
     id="polygon1188" />
  <polygon
     points="148.51 23.55 147.35 27.17 146.25 23.55 144.29 23.55 143.13 27.13 142.03 23.55 139.85 23.55 141.86 29.85 144.14 29.85 145.21 26.48 146.23 29.85 148.51 29.85 150.52 23.55 148.51 23.55"
     fill="#067fc1"
     id="polygon1190" />
  <path
     d="M152.83,23.54l-2.75,6.31h2.16l.42-1.1h2.4l.42,1.1h2.2l-2.76-6.31Zm.42,3.68.61-1.59.61,1.59Z"
     fill="#067fc1"
     id="path1192" />
  <path
     d="M161.82,23.17a7.27,7.27,0,0,0-1.19,4.21,7.27,7.27,0,0,0,1.19,4.21h2a8.28,8.28,0,0,1,0-8.42Z"
     fill="#067fc1"
     id="path1194" />
  <rect
     x="164.08"
     y="24.92"
     width="2.03"
     height="4.92"
     fill="#067fc1"
     id="rect1196" />
  <path
     d="M165.1,22.46a1,1,0,1,0,1.22,1C166.32,22.87,165.85,22.46,165.1,22.46Z"
     fill="#067fc1"
     id="path1198" />
  <path
     d="M170.45,25.12a1.68,1.68,0,0,1,1.37.74l1.35-1.2a3.43,3.43,0,0,0-2.83-1.26,3.3,3.3,0,1,0,0,6.59,3.43,3.43,0,0,0,2.83-1.26l-1.35-1.2a1.68,1.68,0,0,1-1.37.74A1.43,1.43,0,0,1,169,26.7,1.44,1.44,0,0,1,170.45,25.12Z"
     fill="#067fc1"
     id="path1200" />
  <polygon
     points="177.86 25.78 175.9 25.78 175.9 23.55 173.78 23.55 173.78 29.85 175.9 29.85 175.9 27.52 177.86 27.52 177.86 29.85 179.99 29.85 179.99 23.55 177.86 23.55 177.86 25.78"
     fill="#067fc1"
     id="polygon1202" />
  <polygon
     points="181.01 29.85 183.14 29.85 183.14 27.83 185.77 27.83 185.77 26.23 183.14 26.23 183.14 25.15 186.13 25.15 186.13 23.55 181.01 23.55 181.01 29.85"
     fill="#067fc1"
     id="polygon1204" />
  <path
     d="M186.16,23.17a8.28,8.28,0,0,1,0,8.42h1.94a7.2,7.2,0,0,0,1.2-4.21,7.2,7.2,0,0,0-1.2-4.21Z"
     fill="#067fc1"
     id="path1206" />
  <path
     d="M16.14,147.9a.75.75,0,1,0,.68.74A.67.67,0,0,0,16.14,147.9Z"
     fill="#2e4394"
     id="path1208" />
  <path
     d="M45.89,147.12a1.12,1.12,0,1,0,1.1,1.12A1.06,1.06,0,0,0,45.89,147.12Z"
     fill="#2e4394"
     id="path1210" />
  <path
     d="M49.89,147.15h-.66v1.22h.66c.49,0,.74-.23.74-.61S50.38,147.15,49.89,147.15Z"
     fill="#2e4394"
     id="path1212" />
  <path
     d="M29.44,147.9a.66.66,0,1,0,.7.66A.65.65,0,0,0,29.44,147.9Z"
     fill="#2e4394"
     id="path1214" />
  <path
     d="M19.59,147.9a.75.75,0,1,0,.68.74A.67.67,0,0,0,19.59,147.9Z"
     fill="#2e4394"
     id="path1216" />
  <path
     d="M40.35,146.66a1.58,1.58,0,1,0,1.57,1.57A1.54,1.54,0,0,0,40.35,146.66Zm0,2.36a.69.69,0,0,0,.59-.29l.21.16a.93.93,0,0,1-.79.39,1,1,0,0,1,0-2.08.92.92,0,0,1,.79.38l-.21.16a.7.7,0,0,0-.59-.28.78.78,0,0,0,0,1.56Z"
     fill="#2e4394"
     id="path1218" />
  <rect
     y="142"
     width="11"
     height="13.91"
     fill="#2e4394"
     id="rect1220" />
  <polygon
     points="57.36 148.62 58.47 148.62 57.92 147.28 57.36 148.62"
     fill="#2e4394"
     id="polygon1222" />
  <path
     d="M229,142H11v13.91H229ZM13.06,149.36a1.1,1.1,0,0,0,.88-.42l.52.48a1.78,1.78,0,0,1-1.44.63,1.81,1.81,0,1,1,0-3.62,1.8,1.8,0,0,1,1.44.62l-.52.48a1.12,1.12,0,0,0-.88-.41,1.12,1.12,0,1,0,0,2.24Zm3.08.67a1.39,1.39,0,1,1,0-2.77,1.39,1.39,0,1,1,0,2.77Zm3.58,0a1.06,1.06,0,0,1-.81-.33V151h-.78V147.3h.75v.31a1,1,0,0,1,.84-.35,1.39,1.39,0,0,1,0,2.77Zm3.24.12a1.11,1.11,0,0,1-1.11.85,1.15,1.15,0,0,1-.75-.25l.28-.55a.73.73,0,0,0,.44.17c.22,0,.34-.1.44-.34v0l-1.16-2.71h.8l.76,1.82.76-1.82h.75ZM26.17,148H26a.66.66,0,0,0-.71.75V150H24.5V147.3h.74v.35a1.09,1.09,0,0,1,.93-.39Zm1.24,2h-.78V147.3h.78ZM27,146.92a.44.44,0,1,1,.49-.45A.45.45,0,0,1,27,146.92Zm3.89,2.62A1.32,1.32,0,0,1,29.4,151a2.19,2.19,0,0,1-1.32-.37l.31-.56a1.66,1.66,0,0,0,.95.31c.55,0,.79-.26.79-.74v-.12a1.09,1.09,0,0,1-.85.34,1.3,1.3,0,1,1,0-2.6,1.06,1.06,0,0,1,.89.38v-.34h.74Zm3.48.45h-.78v-1.42c0-.44-.2-.64-.55-.64s-.64.23-.64.73V150h-.78v-3.71h.78v1.3a1.18,1.18,0,0,1,.85-.32,1.06,1.06,0,0,1,1.12,1.19Zm1.8,0a.89.89,0,0,1-1-1V148h-.42v-.6h.42v-.66H36v.66h.67v.6H36v1.09a.31.31,0,0,0,.33.36.58.58,0,0,0,.32-.1l.21.55A1.17,1.17,0,0,1,36.19,150Zm4.15,0a1.77,1.77,0,1,1,1.78-1.77A1.74,1.74,0,0,1,40.34,150Zm5.55.05a1.81,1.81,0,1,1,1.92-1.81A1.81,1.81,0,0,1,45.89,150.05Zm4.76-.06L50,149h-.74v1h-.81v-3.5h1.51c.94,0,1.52.48,1.52,1.27a1.12,1.12,0,0,1-.72,1.1l.79,1.13ZM55,150h-.81v-2.84H53.11v-.66h3v.66H55Zm4,0-.31-.75H57.1l-.31.75H56l1.56-3.5h.8l1.57,3.5Zm4.4,0v-2.1l-1,1.73H62l-1-1.69V150h-.76v-3.5h.67l1.31,2.17,1.29-2.17h.67V150Zm2.4,0H65v-3.5h.81Zm2,.06a2.5,2.5,0,0,1-1.43-.41l.28-.61a2,2,0,0,0,1.15.37c.48,0,.68-.16.68-.38,0-.65-2-.2-2-1.5,0-.6.48-1.09,1.48-1.09a2.27,2.27,0,0,1,1.21.31l-.25.61a2,2,0,0,0-1-.27c-.48,0-.66.18-.66.4,0,.64,2,.2,2,1.48C69.3,149.55,68.82,150.05,67.82,150.05Zm4.75-.06H69.86v-3.5H72.5v.65H70.66v.76h1.63v.63H70.66v.81h1.91Zm3.83,0v-2.1l-1,1.73H75l-1-1.69V150h-.76v-3.5h.67l1.31,2.17,1.29-2.17h.67V150Zm2.4,0H78v-3.5h.81Z"
     fill="#2e4394"
     id="path1224" />
  <rect
     x="229"
     y="142"
     width="12"
     height="13.91"
     fill="#2e4394"
     id="rect1226" />
  <path
     d="M13.53,49V46.42H11.25v.73h1.38V49c0,.43-.19.65-.56.65a.91.91,0,0,1-.73-.43l-.34.41V50a1.66,1.66,0,0,0,1.12.41A1.27,1.27,0,0,0,13.53,49Z"
     fill="#2e4394"
     id="path1228" />
  <path
     d="M10.84,49.84A.65.65,0,0,0,11,50v-.36Z"
     fill="#2e4394"
     id="path1230" />
  <path
     d="M14.81,46.91a.51.51,0,0,0,.54-.51.49.49,0,0,0-.54-.47.5.5,0,0,0-.55.49A.51.51,0,0,0,14.81,46.91Z"
     fill="#2e4394"
     id="path1232" />
  <rect
     x="14.37"
     y="47.33"
     width="0.88"
     height="3.02"
     fill="#2e4394"
     id="rect1234" />
  <path
     d="M16.94,48.86c0-.56.3-.82.72-.82s.61.23.61.71v1.6h.88V48.62a1.19,1.19,0,0,0-1.25-1.34,1.31,1.31,0,0,0-1,.4v-.35h-.84v3h.88Z"
     fill="#2e4394"
     id="path1236" />
  <path
     d="M19.75,49.48c0,.52.42.91,1.13.91A1,1,0,0,0,21.8,50v.38h.82V48.62c0-.91-.54-1.34-1.46-1.34a2.29,2.29,0,0,0-1.3.37l.31.61A1.48,1.48,0,0,1,21,48c.48,0,.7.22.7.59H21C20.12,48.57,19.75,49,19.75,49.48Zm2-.39v.3a.63.63,0,0,1-.64.41c-.31,0-.5-.14-.5-.36s.13-.35.54-.35Z"
     fill="#2e4394"
     id="path1238" />
  <rect
     x="25"
     y="46.18"
     width="0.88"
     height="4.17"
     fill="#2e4394"
     id="rect1240" />
  <path
     d="M26.5,49.48c0,.52.42.91,1.13.91a1,1,0,0,0,.92-.42v.38h.82V48.62c0-.91-.54-1.34-1.46-1.34a2.29,2.29,0,0,0-1.3.37l.31.61a1.48,1.48,0,0,1,.87-.28c.48,0,.7.22.7.59h-.7C26.87,48.57,26.5,49,26.5,49.48Zm2-.39v.3a.63.63,0,0,1-.64.41c-.31,0-.5-.14-.5-.36s.13-.35.54-.35Z"
     fill="#2e4394"
     id="path1242" />
  <path
     d="M33.56,50.42a1.63,1.63,0,0,0,1.78-1.8v-2.2h-.9v2.17c0,.74-.32,1-.87,1s-.88-.31-.88-1V46.42h-.91v2.2A1.63,1.63,0,0,0,33.56,50.42Z"
     fill="#2e4394"
     id="path1244" />
  <polygon
     points="37.06 49.58 37.48 49.16 38.43 50.35 39.49 50.35 38.12 48.61 39.38 47.33 38.34 47.33 37.06 48.54 37.06 46.18 36.18 46.18 36.18 50.35 37.06 50.35 37.06 49.58"
     fill="#2e4394"
     id="polygon1246" />
  <path
     d="M41.2,50.39a1.56,1.56,0,1,0-1.66-1.55A1.55,1.55,0,0,0,41.2,50.39Zm0-2.39a.84.84,0,1,1-.78.84A.77.77,0,0,1,41.2,48Z"
     fill="#2e4394"
     id="path1248" />
  <path
     d="M44.88,50.39a1.56,1.56,0,1,0-1.66-1.55A1.55,1.55,0,0,0,44.88,50.39Zm0-2.39a.84.84,0,1,1-.78.84A.77.77,0,0,1,44.88,48Z"
     fill="#2e4394"
     id="path1250" />
  <path
     d="M47.45,50.39a.54.54,0,0,0,.55-.55.55.55,0,0,0-1.09,0A.53.53,0,0,0,47.45,50.39Z"
     fill="#2e4394"
     id="path1252" />
  <path
     d="M47.45,48.38a.54.54,0,0,0,.55-.55.55.55,0,0,0-1.09,0A.53.53,0,0,0,47.45,48.38Z"
     fill="#2e4394"
     id="path1254" />
  <rect
     x="49.78"
     y="50.35"
     width="2.81"
     height="0.51"
     fill="#2e4394"
     id="rect1256" />
  <rect
     x="52.59"
     y="50.35"
     width="2.81"
     height="0.51"
     fill="#2e4394"
     id="rect1258" />
  <rect
     x="55.4"
     y="50.35"
     width="2.81"
     height="0.51"
     fill="#2e4394"
     id="rect1260" />
  <rect
     x="58.21"
     y="50.35"
     width="2.81"
     height="0.51"
     fill="#2e4394"
     id="rect1262" />
  <rect
     x="61.02"
     y="50.35"
     width="2.81"
     height="0.51"
     fill="#2e4394"
     id="rect1264" />
  <rect
     x="63.83"
     y="50.35"
     width="2.81"
     height="0.51"
     fill="#2e4394"
     id="rect1266" />
  <rect
     x="66.64"
     y="50.35"
     width="2.81"
     height="0.51"
     fill="#2e4394"
     id="rect1268" />
  <rect
     x="69.45"
     y="50.35"
     width="2.81"
     height="0.51"
     fill="#2e4394"
     id="rect1270" />
  <rect
     x="72.26"
     y="50.35"
     width="2.81"
     height="0.51"
     fill="#2e4394"
     id="rect1272" />
  <rect
     x="75.07"
     y="50.35"
     width="2.81"
     height="0.51"
     fill="#2e4394"
     id="rect1274" />
  <rect
     x="77.88"
     y="50.35"
     width="2.81"
     height="0.51"
     fill="#2e4394"
     id="rect1276" />
  <rect
     x="80.69"
     y="50.35"
     width="2.81"
     height="0.51"
     fill="#2e4394"
     id="rect1278" />
  <rect
     x="83.5"
     y="50.35"
     width="2.81"
     height="0.51"
     fill="#2e4394"
     id="rect1280" />
  <rect
     x="86.31"
     y="50.35"
     width="2.81"
     height="0.51"
     fill="#2e4394"
     id="rect1282" />
  <rect
     x="89.12"
     y="50.35"
     width="2.81"
     height="0.51"
     fill="#2e4394"
     id="rect1284" />
  <rect
     x="91.93"
     y="50.35"
     width="2.81"
     height="0.51"
     fill="#2e4394"
     id="rect1286" />
  <rect
     x="94.74"
     y="50.35"
     width="2.81"
     height="0.51"
     fill="#2e4394"
     id="rect1288" />
  <rect
     x="97.54"
     y="50.35"
     width="2.81"
     height="0.51"
     fill="#2e4394"
     id="rect1290" />
  <rect
     x="100.35"
     y="50.35"
     width="2.81"
     height="0.51"
     fill="#2e4394"
     id="rect1292" />
  <rect
     x="103.16"
     y="50.35"
     width="2.81"
     height="0.51"
     fill="#2e4394"
     id="rect1294" />
  <rect
     x="105.97"
     y="50.35"
     width="2.81"
     height="0.51"
     fill="#2e4394"
     id="rect1296" />
  <rect
     x="108.78"
     y="50.35"
     width="2.81"
     height="0.51"
     fill="#2e4394"
     id="rect1298" />
  <rect
     x="111.59"
     y="50.35"
     width="2.81"
     height="0.51"
     fill="#2e4394"
     id="rect1300" />
  <rect
     x="114.4"
     y="50.35"
     width="2.81"
     height="0.51"
     fill="#2e4394"
     id="rect1302" />
  <rect
     x="117.21"
     y="50.35"
     width="2.81"
     height="0.51"
     fill="#2e4394"
     id="rect1304" />
  <rect
     x="120.02"
     y="50.35"
     width="2.81"
     height="0.51"
     fill="#2e4394"
     id="rect1306" />
  <rect
     x="122.83"
     y="50.35"
     width="2.81"
     height="0.51"
     fill="#2e4394"
     id="rect1308" />
  <rect
     x="125.64"
     y="50.35"
     width="2.81"
     height="0.51"
     fill="#2e4394"
     id="rect1310" />
  <rect
     x="128.45"
     y="50.35"
     width="2.81"
     height="0.51"
     fill="#2e4394"
     id="rect1312" />
  <rect
     x="131.26"
     y="50.35"
     width="2.81"
     height="0.51"
     fill="#2e4394"
     id="rect1314" />
  <rect
     x="134.07"
     y="50.35"
     width="2.81"
     height="0.51"
     fill="#2e4394"
     id="rect1316" />
  <rect
     x="136.88"
     y="50.35"
     width="2.81"
     height="0.51"
     fill="#2e4394"
     id="rect1318" />
  <rect
     x="139.69"
     y="50.35"
     width="2.81"
     height="0.51"
     fill="#2e4394"
     id="rect1320" />
  <rect
     x="142.5"
     y="50.35"
     width="2.81"
     height="0.51"
     fill="#2e4394"
     id="rect1322" />
  <rect
     x="145.31"
     y="50.35"
     width="2.81"
     height="0.51"
     fill="#2e4394"
     id="rect1324" />
  <rect
     x="148.12"
     y="50.35"
     width="2.81"
     height="0.51"
     fill="#2e4394"
     id="rect1326" />
  <rect
     x="150.93"
     y="50.35"
     width="2.81"
     height="0.51"
     fill="#2e4394"
     id="rect1328" />
  <rect
     x="153.74"
     y="50.35"
     width="2.81"
     height="0.51"
     fill="#2e4394"
     id="rect1330" />
  <rect
     x="156.55"
     y="50.35"
     width="2.81"
     height="0.51"
     fill="#2e4394"
     id="rect1332" />
  <rect
     x="159.36"
     y="50.35"
     width="2.81"
     height="0.51"
     fill="#2e4394"
     id="rect1334" />
  <rect
     x="162.17"
     y="50.35"
     width="2.81"
     height="0.51"
     fill="#2e4394"
     id="rect1336" />
  <rect
     x="164.97"
     y="50.35"
     width="2.81"
     height="0.51"
     fill="#2e4394"
     id="rect1338" />
  <rect
     x="167.78"
     y="50.35"
     width="2.22"
     height="0.51"
     fill="#2e4394"
     id="rect1340" />
  <path
     d="M13.53,62V59.42H11.25v.73h1.38V62c0,.43-.19.65-.56.65a.91.91,0,0,1-.73-.43l-.34.41V63a1.66,1.66,0,0,0,1.12.41A1.27,1.27,0,0,0,13.53,62Z"
     fill="#2e4394"
     id="path1342" />
  <path
     d="M10.84,62.84A.65.65,0,0,0,11,63v-.36Z"
     fill="#2e4394"
     id="path1344" />
  <rect
     x="14.37"
     y="60.33"
     width="0.88"
     height="3.02"
     fill="#2e4394"
     id="rect1346" />
  <path
     d="M14.81,59.91a.51.51,0,0,0,.54-.51.49.49,0,0,0-.54-.47.5.5,0,0,0-.55.49A.51.51,0,0,0,14.81,59.91Z"
     fill="#2e4394"
     id="path1348" />
  <path
     d="M16.94,61.86c0-.56.3-.82.72-.82s.61.23.61.71v1.6h.88V61.62a1.19,1.19,0,0,0-1.25-1.34,1.31,1.31,0,0,0-1,.4v-.35h-.84v3h.88Z"
     fill="#2e4394"
     id="path1350" />
  <path
     d="M20.88,63.39A1,1,0,0,0,21.8,63v.38h.82V61.62c0-.91-.54-1.34-1.46-1.34a2.29,2.29,0,0,0-1.3.37l.31.61A1.48,1.48,0,0,1,21,61c.48,0,.7.22.7.59H21c-.92,0-1.29.38-1.29.91S20.17,63.39,20.88,63.39Zm.26-1.3h.6v.3a.63.63,0,0,1-.64.41c-.31,0-.5-.14-.5-.36S20.73,62.09,21.14,62.09Z"
     fill="#2e4394"
     id="path1352" />
  <rect
     x="25"
     y="59.18"
     width="0.88"
     height="4.17"
     fill="#2e4394"
     id="rect1354" />
  <path
     d="M27.63,63.39a1,1,0,0,0,.92-.42v.38h.82V61.62c0-.91-.54-1.34-1.46-1.34a2.29,2.29,0,0,0-1.3.37l.31.61a1.48,1.48,0,0,1,.87-.28c.48,0,.7.22.7.59h-.7c-.92,0-1.29.38-1.29.91S26.92,63.39,27.63,63.39Zm.26-1.3h.6v.3a.63.63,0,0,1-.64.41c-.31,0-.5-.14-.5-.36S27.48,62.09,27.89,62.09Z"
     fill="#2e4394"
     id="path1356" />
  <polygon
     points="32.72 61.26 32.72 59.42 31.81 59.42 31.81 63.35 32.72 63.35 32.72 62.35 33.25 61.8 34.51 63.35 35.56 63.35 33.84 61.17 35.47 59.42 34.46 59.42 32.72 61.26"
     fill="#2e4394"
     id="polygon1358" />
  <polygon
     points="36.39 63.35 37.23 63.35 37.93 61.47 38.61 63.35 39.45 63.35 40.55 60.33 39.77 60.33 39.04 62.37 38.32 60.33 37.58 60.33 36.84 62.37 36.12 60.33 35.3 60.33 36.39 63.35"
     fill="#2e4394"
     id="polygon1360" />
  <path
     d="M40.78,60.65l.31.61A1.48,1.48,0,0,1,42,61c.47,0,.7.22.7.59H42c-.92,0-1.29.38-1.29.91s.42.91,1.12.91a1,1,0,0,0,.93-.42v.38h.82V61.62c0-.91-.54-1.34-1.46-1.34A2.29,2.29,0,0,0,40.78,60.65Zm1.88,1.74a.64.64,0,0,1-.65.41c-.31,0-.49-.14-.49-.36s.13-.35.54-.35h.6Z"
     fill="#2e4394"
     id="path1362" />
  <path
     d="M44.33,60.33v3h.88V61.86c0-.56.3-.82.72-.82s.61.23.61.71v1.6h.88V61.62a1.19,1.19,0,0,0-1.25-1.34,1.31,1.31,0,0,0-1,.4v-.35Z"
     fill="#2e4394"
     id="path1364" />
  <polygon
     points="50.7 62.67 49.11 62.67 50.65 60.86 50.65 60.33 48.04 60.33 48.04 61 49.54 61 48.01 62.82 48.01 63.35 50.7 63.35 50.7 62.67"
     fill="#2e4394"
     id="polygon1366" />
  <path
     d="M51.07,62.48c0,.52.42.91,1.13.91a1,1,0,0,0,.92-.42v.38h.82V61.62c0-.91-.54-1.34-1.46-1.34a2.29,2.29,0,0,0-1.3.37l.32.61a1.44,1.44,0,0,1,.87-.28c.47,0,.69.22.69.59h-.69C51.44,61.57,51.07,62,51.07,62.48Zm2-.39v.3a.63.63,0,0,1-.64.41c-.31,0-.5-.14-.5-.36s.13-.35.54-.35Z"
     fill="#2e4394"
     id="path1368" />
  <path
     d="M55.06,63.39a.54.54,0,0,0,.55-.55.55.55,0,0,0-1.09,0A.53.53,0,0,0,55.06,63.39Z"
     fill="#2e4394"
     id="path1370" />
  <path
     d="M55.06,61.38a.54.54,0,0,0,.55-.55.55.55,0,0,0-1.09,0A.53.53,0,0,0,55.06,61.38Z"
     fill="#2e4394"
     id="path1372" />
  <rect
     x="57.39"
     y="63.35"
     width="2.81"
     height="0.51"
     fill="#2e4394"
     id="rect1374" />
  <rect
     x="60.2"
     y="63.35"
     width="2.81"
     height="0.51"
     fill="#2e4394"
     id="rect1376" />
  <rect
     x="63.01"
     y="63.35"
     width="2.81"
     height="0.51"
     fill="#2e4394"
     id="rect1378" />
  <rect
     x="65.82"
     y="63.35"
     width="2.81"
     height="0.51"
     fill="#2e4394"
     id="rect1380" />
  <rect
     x="68.63"
     y="63.35"
     width="2.81"
     height="0.51"
     fill="#2e4394"
     id="rect1382" />
  <rect
     x="71.44"
     y="63.35"
     width="2.81"
     height="0.51"
     fill="#2e4394"
     id="rect1384" />
  <rect
     x="74.25"
     y="63.35"
     width="2.81"
     height="0.51"
     fill="#2e4394"
     id="rect1386" />
  <rect
     x="77.06"
     y="63.35"
     width="2.81"
     height="0.51"
     fill="#2e4394"
     id="rect1388" />
  <rect
     x="79.87"
     y="63.35"
     width="2.81"
     height="0.51"
     fill="#2e4394"
     id="rect1390" />
  <rect
     x="82.68"
     y="63.35"
     width="2.81"
     height="0.51"
     fill="#2e4394"
     id="rect1392" />
  <rect
     x="85.49"
     y="63.35"
     width="2.81"
     height="0.51"
     fill="#2e4394"
     id="rect1394" />
  <rect
     x="88.3"
     y="63.35"
     width="2.81"
     height="0.51"
     fill="#2e4394"
     id="rect1396" />
  <rect
     x="91.11"
     y="63.35"
     width="2.81"
     height="0.51"
     fill="#2e4394"
     id="rect1398" />
  <rect
     x="93.92"
     y="63.35"
     width="2.81"
     height="0.51"
     fill="#2e4394"
     id="rect1400" />
  <rect
     x="96.73"
     y="63.35"
     width="2.81"
     height="0.51"
     fill="#2e4394"
     id="rect1402" />
  <rect
     x="99.54"
     y="63.35"
     width="2.81"
     height="0.51"
     fill="#2e4394"
     id="rect1404" />
  <rect
     x="102.34"
     y="63.35"
     width="2.81"
     height="0.51"
     fill="#2e4394"
     id="rect1406" />
  <rect
     x="105.15"
     y="63.35"
     width="2.81"
     height="0.51"
     fill="#2e4394"
     id="rect1408" />
  <rect
     x="107.96"
     y="63.35"
     width="2.81"
     height="0.51"
     fill="#2e4394"
     id="rect1410" />
  <rect
     x="110.77"
     y="63.35"
     width="2.81"
     height="0.51"
     fill="#2e4394"
     id="rect1412" />
  <rect
     x="113.58"
     y="63.35"
     width="2.81"
     height="0.51"
     fill="#2e4394"
     id="rect1414" />
  <rect
     x="116.39"
     y="63.35"
     width="2.81"
     height="0.51"
     fill="#2e4394"
     id="rect1416" />
  <rect
     x="119.2"
     y="63.35"
     width="2.81"
     height="0.51"
     fill="#2e4394"
     id="rect1418" />
  <rect
     x="122.01"
     y="63.35"
     width="2.81"
     height="0.51"
     fill="#2e4394"
     id="rect1420" />
  <rect
     x="124.82"
     y="63.35"
     width="2.81"
     height="0.51"
     fill="#2e4394"
     id="rect1422" />
  <rect
     x="127.63"
     y="63.35"
     width="2.81"
     height="0.51"
     fill="#2e4394"
     id="rect1424" />
  <rect
     x="130.44"
     y="63.35"
     width="2.81"
     height="0.51"
     fill="#2e4394"
     id="rect1426" />
  <rect
     x="133.25"
     y="63.35"
     width="2.81"
     height="0.51"
     fill="#2e4394"
     id="rect1428" />
  <rect
     x="136.06"
     y="63.35"
     width="2.81"
     height="0.51"
     fill="#2e4394"
     id="rect1430" />
  <rect
     x="138.87"
     y="63.35"
     width="2.81"
     height="0.51"
     fill="#2e4394"
     id="rect1432" />
  <rect
     x="141.68"
     y="63.35"
     width="2.81"
     height="0.51"
     fill="#2e4394"
     id="rect1434" />
  <rect
     x="144.49"
     y="63.35"
     width="2.81"
     height="0.51"
     fill="#2e4394"
     id="rect1436" />
  <rect
     x="147.3"
     y="63.35"
     width="2.81"
     height="0.51"
     fill="#2e4394"
     id="rect1438" />
  <rect
     x="150.11"
     y="63.35"
     width="2.81"
     height="0.51"
     fill="#2e4394"
     id="rect1440" />
  <rect
     x="152.92"
     y="63.35"
     width="2.81"
     height="0.51"
     fill="#2e4394"
     id="rect1442" />
  <rect
     x="155.73"
     y="63.35"
     width="2.81"
     height="0.51"
     fill="#2e4394"
     id="rect1444" />
  <rect
     x="158.54"
     y="63.35"
     width="2.81"
     height="0.51"
     fill="#2e4394"
     id="rect1446" />
  <rect
     x="161.35"
     y="63.35"
     width="2.81"
     height="0.51"
     fill="#2e4394"
     id="rect1448" />
  <rect
     x="164.16"
     y="63.35"
     width="2.81"
     height="0.51"
     fill="#2e4394"
     id="rect1450" />
  <rect
     x="166.96"
     y="63.35"
     width="2.81"
     height="0.51"
     fill="#2e4394"
     id="rect1452" />
  <rect
     x="169.77"
     y="63.35"
     width="0.23"
     height="0.51"
     fill="#2e4394"
     id="rect1454" />
  <path
     d="M13.53,75V72.42H11.25v.73h1.38V75c0,.43-.19.65-.56.65a.91.91,0,0,1-.73-.43l-.34.41V76a1.66,1.66,0,0,0,1.12.41A1.27,1.27,0,0,0,13.53,75Z"
     fill="#2e4394"
     id="path1456" />
  <path
     d="M10.84,75.84A.65.65,0,0,0,11,76v-.36Z"
     fill="#2e4394"
     id="path1458" />
  <path
     d="M14.81,72.91a.51.51,0,0,0,.54-.51.49.49,0,0,0-.54-.47.5.5,0,0,0-.55.49A.51.51,0,0,0,14.81,72.91Z"
     fill="#2e4394"
     id="path1460" />
  <rect
     x="14.37"
     y="73.33"
     width="0.88"
     height="3.02"
     fill="#2e4394"
     id="rect1462" />
  <path
     d="M16.94,74.86c0-.56.3-.82.72-.82s.61.23.61.71v1.6h.88V74.62a1.19,1.19,0,0,0-1.25-1.34,1.31,1.31,0,0,0-1,.4v-.35h-.84v3h.88Z"
     fill="#2e4394"
     id="path1464" />
  <path
     d="M20.88,76.39A1,1,0,0,0,21.8,76v.38h.82V74.62c0-.91-.54-1.34-1.46-1.34a2.29,2.29,0,0,0-1.3.37l.31.61A1.48,1.48,0,0,1,21,74c.48,0,.7.22.7.59H21c-.92,0-1.29.38-1.29.91S20.17,76.39,20.88,76.39Zm.26-1.31h.6v.31a.63.63,0,0,1-.64.41c-.31,0-.5-.14-.5-.36S20.73,75.08,21.14,75.08Z"
     fill="#2e4394"
     id="path1466" />
  <rect
     x="25"
     y="72.18"
     width="0.88"
     height="4.17"
     fill="#2e4394"
     id="rect1468" />
  <path
     d="M27.63,76.39a1,1,0,0,0,.92-.42v.38h.82V74.62c0-.91-.54-1.34-1.46-1.34a2.29,2.29,0,0,0-1.3.37l.31.61a1.48,1.48,0,0,1,.87-.28c.48,0,.7.22.7.59h-.7c-.92,0-1.29.38-1.29.91S26.92,76.39,27.63,76.39Zm.26-1.31h.6v.31a.63.63,0,0,1-.64.41c-.31,0-.5-.14-.5-.36S27.48,75.08,27.89,75.08Z"
     fill="#2e4394"
     id="path1470" />
  <polygon
     points="35.56 76.35 33.84 74.17 35.47 72.42 34.46 72.42 32.72 74.25 32.72 72.42 31.81 72.42 31.81 76.35 32.72 76.35 32.72 75.35 33.25 74.81 34.51 76.35 35.56 76.35"
     fill="#2e4394"
     id="polygon1472" />
  <path
     d="M38.52,76.35V74.62c0-.91-.54-1.34-1.46-1.34a2.29,2.29,0,0,0-1.3.37l.31.61a1.48,1.48,0,0,1,.87-.28c.48,0,.7.22.7.59h-.7c-.92,0-1.29.38-1.29.91s.42.91,1.13.91A1,1,0,0,0,37.7,76v.38Zm-.88-1a.63.63,0,0,1-.64.41c-.31,0-.5-.14-.5-.36s.13-.36.54-.36h.6Z"
     fill="#2e4394"
     id="path1474" />
  <path
     d="M40.55,76.39a1.23,1.23,0,0,0,.71-.19L41,75.58a.53.53,0,0,1-.35.12.35.35,0,0,1-.38-.4V74.07h.76v-.68h-.76v-.73h-.87v.73H39v.68h.47v1.24A1,1,0,0,0,40.55,76.39Z"
     fill="#2e4394"
     id="path1476" />
  <rect
     x="41.76"
     y="73.33"
     width="0.88"
     height="3.02"
     fill="#2e4394"
     id="rect1478" />
  <path
     d="M42.19,71.93a.5.5,0,0,0-.54.49.5.5,0,0,0,.54.49.51.51,0,0,0,.55-.51A.49.49,0,0,0,42.19,71.93Z"
     fill="#2e4394"
     id="path1480" />
  <path
     d="M43.78,74.38a.53.53,0,0,0,.54-.55.52.52,0,0,0-.54-.54.53.53,0,0,0-.55.54A.54.54,0,0,0,43.78,74.38Z"
     fill="#2e4394"
     id="path1482" />
  <path
     d="M43.78,76.39a.53.53,0,0,0,.54-.55.53.53,0,0,0-.54-.54.53.53,0,0,0-.55.54A.54.54,0,0,0,43.78,76.39Z"
     fill="#2e4394"
     id="path1484" />
  <rect
     x="44.57"
     y="76.35"
     width="2.81"
     height="0.5"
     fill="#2e4394"
     id="rect1486" />
  <rect
     x="47.38"
     y="76.35"
     width="2.81"
     height="0.5"
     fill="#2e4394"
     id="rect1488" />
  <rect
     x="50.19"
     y="76.35"
     width="2.81"
     height="0.5"
     fill="#2e4394"
     id="rect1490" />
  <rect
     x="53"
     y="76.35"
     width="2.81"
     height="0.5"
     fill="#2e4394"
     id="rect1492" />
  <rect
     x="55.81"
     y="76.35"
     width="2.81"
     height="0.5"
     fill="#2e4394"
     id="rect1494" />
  <rect
     x="58.62"
     y="76.35"
     width="2.81"
     height="0.5"
     fill="#2e4394"
     id="rect1496" />
  <rect
     x="61.43"
     y="76.35"
     width="2.81"
     height="0.5"
     fill="#2e4394"
     id="rect1498" />
  <rect
     x="64.24"
     y="76.35"
     width="2.81"
     height="0.5"
     fill="#2e4394"
     id="rect1500" />
  <rect
     x="67.05"
     y="76.35"
     width="2.81"
     height="0.5"
     fill="#2e4394"
     id="rect1502" />
  <rect
     x="69.86"
     y="76.35"
     width="2.81"
     height="0.5"
     fill="#2e4394"
     id="rect1504" />
  <rect
     x="72.67"
     y="76.35"
     width="2.81"
     height="0.5"
     fill="#2e4394"
     id="rect1506" />
  <rect
     x="75.48"
     y="76.35"
     width="2.81"
     height="0.5"
     fill="#2e4394"
     id="rect1508" />
  <rect
     x="78.29"
     y="76.35"
     width="2.81"
     height="0.5"
     fill="#2e4394"
     id="rect1510" />
  <rect
     x="81.1"
     y="76.35"
     width="2.81"
     height="0.5"
     fill="#2e4394"
     id="rect1512" />
  <rect
     x="83.91"
     y="76.35"
     width="2.81"
     height="0.5"
     fill="#2e4394"
     id="rect1514" />
  <rect
     x="86.71"
     y="76.35"
     width="2.81"
     height="0.5"
     fill="#2e4394"
     id="rect1516" />
  <rect
     x="89.52"
     y="76.35"
     width="2.81"
     height="0.5"
     fill="#2e4394"
     id="rect1518" />
  <rect
     x="92.33"
     y="76.35"
     width="2.81"
     height="0.5"
     fill="#2e4394"
     id="rect1520" />
  <rect
     x="95.14"
     y="76.35"
     width="2.81"
     height="0.5"
     fill="#2e4394"
     id="rect1522" />
  <rect
     x="97.95"
     y="76.35"
     width="2.81"
     height="0.5"
     fill="#2e4394"
     id="rect1524" />
  <rect
     x="100.76"
     y="76.35"
     width="2.81"
     height="0.5"
     fill="#2e4394"
     id="rect1526" />
  <rect
     x="103.57"
     y="76.35"
     width="2.81"
     height="0.5"
     fill="#2e4394"
     id="rect1528" />
  <rect
     x="106.38"
     y="76.35"
     width="2.81"
     height="0.5"
     fill="#2e4394"
     id="rect1530" />
  <rect
     x="109.19"
     y="76.35"
     width="2.81"
     height="0.5"
     fill="#2e4394"
     id="rect1532" />
  <rect
     x="112"
     y="76.35"
     width="2.81"
     height="0.5"
     fill="#2e4394"
     id="rect1534" />
  <rect
     x="114.81"
     y="76.35"
     width="2.81"
     height="0.5"
     fill="#2e4394"
     id="rect1536" />
  <rect
     x="117.62"
     y="76.35"
     width="2.81"
     height="0.5"
     fill="#2e4394"
     id="rect1538" />
  <rect
     x="120.43"
     y="76.35"
     width="2.81"
     height="0.5"
     fill="#2e4394"
     id="rect1540" />
  <rect
     x="123.24"
     y="76.35"
     width="2.81"
     height="0.5"
     fill="#2e4394"
     id="rect1542" />
  <rect
     x="126.05"
     y="76.35"
     width="2.81"
     height="0.5"
     fill="#2e4394"
     id="rect1544" />
  <rect
     x="128.86"
     y="76.35"
     width="2.81"
     height="0.5"
     fill="#2e4394"
     id="rect1546" />
  <rect
     x="131.67"
     y="76.35"
     width="2.81"
     height="0.5"
     fill="#2e4394"
     id="rect1548" />
  <rect
     x="134.48"
     y="76.35"
     width="2.81"
     height="0.5"
     fill="#2e4394"
     id="rect1550" />
  <rect
     x="137.29"
     y="76.35"
     width="2.81"
     height="0.5"
     fill="#2e4394"
     id="rect1552" />
  <rect
     x="140.1"
     y="76.35"
     width="2.81"
     height="0.5"
     fill="#2e4394"
     id="rect1554" />
  <rect
     x="142.91"
     y="76.35"
     width="2.81"
     height="0.5"
     fill="#2e4394"
     id="rect1556" />
  <rect
     x="145.72"
     y="76.35"
     width="2.81"
     height="0.5"
     fill="#2e4394"
     id="rect1558" />
  <rect
     x="148.53"
     y="76.35"
     width="2.81"
     height="0.5"
     fill="#2e4394"
     id="rect1560" />
  <rect
     x="151.33"
     y="76.35"
     width="2.81"
     height="0.5"
     fill="#2e4394"
     id="rect1562" />
  <rect
     x="154.14"
     y="76.35"
     width="2.81"
     height="0.5"
     fill="#2e4394"
     id="rect1564" />
  <rect
     x="156.95"
     y="76.35"
     width="2.81"
     height="0.5"
     fill="#2e4394"
     id="rect1566" />
  <rect
     x="159.76"
     y="76.35"
     width="2.81"
     height="0.5"
     fill="#2e4394"
     id="rect1568" />
  <rect
     x="162.57"
     y="76.35"
     width="2.81"
     height="0.5"
     fill="#2e4394"
     id="rect1570" />
  <rect
     x="165.38"
     y="76.35"
     width="2.81"
     height="0.5"
     fill="#2e4394"
     id="rect1572" />
  <rect
     x="168.19"
     y="76.35"
     width="1.81"
     height="0.5"
     fill="#2e4394"
     id="rect1574" />
  <path
     d="M13.53,88V85.42H11.25v.73h1.38V88c0,.43-.19.65-.56.65a.91.91,0,0,1-.73-.43l-.34.41V89a1.66,1.66,0,0,0,1.12.41A1.27,1.27,0,0,0,13.53,88Z"
     fill="#2e4394"
     id="path1576" />
  <path
     d="M10.84,88.84A.65.65,0,0,0,11,89v-.36Z"
     fill="#2e4394"
     id="path1578" />
  <rect
     x="14.37"
     y="86.33"
     width="0.88"
     height="3.02"
     fill="#2e4394"
     id="rect1580" />
  <path
     d="M14.81,85.91a.51.51,0,0,0,.54-.51.49.49,0,0,0-.54-.47.5.5,0,0,0-.55.49A.51.51,0,0,0,14.81,85.91Z"
     fill="#2e4394"
     id="path1582" />
  <path
     d="M16.94,87.86c0-.56.3-.82.72-.82s.61.23.61.71v1.6h.88V87.62a1.19,1.19,0,0,0-1.25-1.34,1.31,1.31,0,0,0-1,.4v-.35h-.84v3h.88Z"
     fill="#2e4394"
     id="path1584" />
  <path
     d="M21,88.73a2.11,2.11,0,0,1-1-.29l-.29.63a2.66,2.66,0,0,0,1.31.32c.9,0,1.43-.39,1.43-1,0-1.19-1.83-.69-1.83-1.2,0-.16.17-.28.56-.28a1.68,1.68,0,0,1,.87.22l.3-.62a2.5,2.5,0,0,0-1.17-.27c-.88,0-1.39.41-1.39,1,0,1.21,1.82.7,1.82,1.2C21.55,88.62,21.4,88.73,21,88.73Z"
     fill="#2e4394"
     id="path1586" />
  <path
     d="M23.37,84.93a.5.5,0,0,0-.55.49.55.55,0,0,0,1.09,0A.49.49,0,0,0,23.37,84.93Z"
     fill="#2e4394"
     id="path1588" />
  <rect
     x="22.93"
     y="86.33"
     width="0.88"
     height="3.02"
     fill="#2e4394"
     id="rect1590" />
  <path
     d="M24.42,88.48c0,.52.42.91,1.13.91a1,1,0,0,0,.92-.42v.38h.82V87.62c0-.91-.53-1.34-1.45-1.34a2.29,2.29,0,0,0-1.3.37l.31.61a1.48,1.48,0,0,1,.87-.28c.47,0,.7.22.7.59h-.7C24.8,87.57,24.42,88,24.42,88.48Zm2-.4v.31a.65.65,0,0,1-.65.41c-.31,0-.49-.14-.49-.36s.13-.36.54-.36Z"
     fill="#2e4394"
     id="path1592" />
  <path
     d="M28.42,86.29a.53.53,0,0,0-.55.54.54.54,0,0,0,.55.55.53.53,0,0,0,.54-.55A.52.52,0,0,0,28.42,86.29Z"
     fill="#2e4394"
     id="path1594" />
  <path
     d="M28.42,88.3a.53.53,0,0,0-.55.54.54.54,0,0,0,.55.55.53.53,0,0,0,.54-.55A.53.53,0,0,0,28.42,88.3Z"
     fill="#2e4394"
     id="path1596" />
  <polygon
     points="49.11 89.35 49.96 89.35 49.95 85.42 49.2 85.42 47.75 87.86 46.28 85.42 45.53 85.42 45.53 89.35 46.38 89.35 46.38 87.04 47.53 88.93 47.95 88.93 49.1 86.99 49.11 89.35"
     fill="#2e4394"
     id="polygon1598" />
  <path
     d="M53.58,88.91l-.46-.51a1,1,0,0,1-.76.29.82.82,0,0,1-.87-.61h2.29c0-.07,0-.16,0-.23a1.5,1.5,0,0,0-1.57-1.57,1.54,1.54,0,0,0-1.61,1.56,1.56,1.56,0,0,0,1.72,1.55A1.61,1.61,0,0,0,53.58,88.91Zm-1.35-2a.71.71,0,0,1,.74.62H51.48A.71.71,0,0,1,52.23,87Z"
     fill="#2e4394"
     id="path1600" />
  <polygon
     points="78.31 85.42 78.31 89.35 79.21 89.35 79.21 88.35 79.74 87.81 81 89.35 82.06 89.35 80.33 87.17 81.96 85.42 80.95 85.42 79.21 87.25 79.21 85.42 78.31 85.42"
     fill="#2e4394"
     id="polygon1602" />
  <path
     d="M85.24,87.85a1.5,1.5,0,0,0-1.57-1.57,1.54,1.54,0,0,0-1.62,1.56,1.57,1.57,0,0,0,1.73,1.55A1.6,1.6,0,0,0,85,88.91l-.46-.51a1,1,0,0,1-.76.29.8.8,0,0,1-.86-.61h2.28A1.79,1.79,0,0,0,85.24,87.85Zm-2.32-.28a.72.72,0,0,1,.75-.62.71.71,0,0,1,.74.62Z"
     fill="#2e4394"
     id="path1604" />
  <polygon
     points="12.21 102.35 13.12 102.35 13.12 99.16 14.37 99.16 14.37 98.42 11 98.42 11 99.16 12.21 99.16 12.21 102.35"
     fill="#2e4394"
     id="polygon1606" />
  <rect
     x="10.95"
     y="98.42"
     width="0.05"
     height="0.74"
     fill="#2e4394"
     id="rect1608" />
  <path
     d="M14.88,100.26a1.48,1.48,0,0,1,.87-.28c.47,0,.7.22.7.59h-.7c-.92,0-1.29.38-1.29.91s.42.91,1.12.91a1,1,0,0,0,.92-.42v.38h.82v-1.73c0-.91-.53-1.34-1.45-1.34a2.29,2.29,0,0,0-1.3.37Zm1.57,1.13a.65.65,0,0,1-.65.41c-.31,0-.49-.14-.49-.36s.13-.36.54-.36h.6Z"
     fill="#2e4394"
     id="path1610" />
  <path
     d="M18.12,99.33v3H19v-1.43a.74.74,0,0,1,.8-.84H20v-.81a1.2,1.2,0,0,0-1,.45v-.4Z"
     fill="#2e4394"
     id="path1612" />
  <path
     d="M21.88,99.28a1.54,1.54,0,0,0-1.61,1.56A1.56,1.56,0,0,0,22,102.39a1.63,1.63,0,0,0,1.25-.48l-.47-.51a1,1,0,0,1-.76.29.8.8,0,0,1-.86-.61h2.28a1.79,1.79,0,0,0,0-.23A1.5,1.5,0,0,0,21.88,99.28Zm-.74,1.29a.75.75,0,0,1,1.48,0Z"
     fill="#2e4394"
     id="path1614" />
  <path
     d="M24.91,100.86c0-.56.31-.82.73-.82s.61.23.61.71v1.6h.87v-1.73a1.19,1.19,0,0,0-1.25-1.34,1.37,1.37,0,0,0-1,.36V98.18H24v4.17h.87Z"
     fill="#2e4394"
     id="path1616" />
  <path
     d="M29.34,99.28a1.54,1.54,0,0,0-1.61,1.56,1.56,1.56,0,0,0,1.72,1.55,1.61,1.61,0,0,0,1.25-.48l-.47-.51a1,1,0,0,1-.76.29.8.8,0,0,1-.86-.61h2.28a1.79,1.79,0,0,0,0-.23A1.5,1.5,0,0,0,29.34,99.28Zm-.74,1.29a.71.71,0,0,1,.74-.62.72.72,0,0,1,.75.62Z"
     fill="#2e4394"
     id="path1618" />
  <path
     d="M33.44,102.78a.76.76,0,0,1-.49-.2l-.32.63a1.36,1.36,0,0,0,.84.27,1.24,1.24,0,0,0,1.25-1l1.37-3.2h-.84l-.86,2-.85-2h-.9l1.31,3v0C33.82,102.67,33.68,102.78,33.44,102.78Z"
     fill="#2e4394"
     id="path1620" />
  <path
     d="M36.15,101.48c0,.52.42.91,1.13.91a1,1,0,0,0,.92-.42v.38H39v-1.73c0-.91-.53-1.34-1.45-1.34a2.32,2.32,0,0,0-1.31.37l.32.61a1.48,1.48,0,0,1,.87-.28c.47,0,.7.22.7.59h-.7C36.53,100.57,36.15,101,36.15,101.48Zm2-.4v.31a.65.65,0,0,1-.65.41c-.31,0-.49-.14-.49-.36s.12-.36.53-.36Z"
     fill="#2e4394"
     id="path1622" />
  <polygon
     points="43.35 100.61 44.61 99.33 43.56 99.33 42.28 100.54 42.28 98.18 41.41 98.18 41.41 102.35 42.28 102.35 42.28 101.58 42.7 101.16 43.66 102.35 44.72 102.35 43.35 100.61"
     fill="#2e4394"
     id="polygon1624" />
  <path
     d="M48.1,99.33h-.87v1.49c0,.56-.3.82-.7.82s-.61-.23-.61-.73V99.33H45V101a1.2,1.2,0,0,0,1.29,1.35,1.22,1.22,0,0,0,.94-.4v.36h.83Z"
     fill="#2e4394"
     id="path1626" />
  <polygon
     points="51.41 101.67 49.82 101.67 51.36 99.86 51.36 99.33 48.75 99.33 48.75 100 50.25 100 48.71 101.82 48.71 102.35 51.41 102.35 51.41 101.67"
     fill="#2e4394"
     id="polygon1628" />
  <path
     d="M54.64,102.35v-1.73c0-.91-.53-1.34-1.45-1.34a2.29,2.29,0,0,0-1.3.37l.31.61a1.48,1.48,0,0,1,.87-.28c.47,0,.7.22.7.59h-.7c-.92,0-1.29.38-1.29.91s.42.91,1.12.91a1,1,0,0,0,.93-.42v.38Zm-.87-1a.64.64,0,0,1-.65.41c-.31,0-.49-.14-.49-.36s.13-.36.54-.36h.6Z"
     fill="#2e4394"
     id="path1630" />
  <rect
     x="55.44"
     y="98.18"
     width="0.88"
     height="4.17"
     fill="#2e4394"
     id="rect1632" />
  <rect
     x="57.13"
     y="99.33"
     width="0.88"
     height="3.02"
     fill="#2e4394"
     id="rect1634" />
  <path
     d="M57,98.42a.55.55,0,0,0,1.09,0,.49.49,0,0,0-.54-.47A.5.5,0,0,0,57,98.42Z"
     fill="#2e4394"
     id="path1636" />
  <polygon
     points="62.9 99.33 62.16 101.37 61.44 99.33 60.7 99.33 59.96 101.37 59.25 99.33 58.42 99.33 59.51 102.35 60.35 102.35 61.06 100.47 61.74 102.35 62.58 102.35 63.67 99.33 62.9 99.33"
     fill="#2e4394"
     id="polygon1638" />
  <path
     d="M66.66,102.35v-1.73c0-.91-.53-1.34-1.45-1.34a2.3,2.3,0,0,0-1.31.37l.32.61a1.48,1.48,0,0,1,.87-.28c.47,0,.69.22.69.59h-.69c-.92,0-1.3.38-1.3.91s.42.91,1.13.91a1,1,0,0,0,.92-.42v.38Zm-.88-1a.63.63,0,0,1-.64.41c-.31,0-.5-.14-.5-.36s.13-.36.54-.36h.6Z"
     fill="#2e4394"
     id="path1640" />
  <path
     d="M67.79,101.3a.53.53,0,0,0-.55.54.55.55,0,1,0,1.09,0A.53.53,0,0,0,67.79,101.3Z"
     fill="#2e4394"
     id="path1642" />
  <path
     d="M67.79,99.29a.52.52,0,0,0-.55.54.55.55,0,1,0,1.09,0A.52.52,0,0,0,67.79,99.29Z"
     fill="#2e4394"
     id="path1644" />
  <rect
     x="70.11"
     y="102.35"
     width="2.81"
     height="0.5"
     fill="#2e4394"
     id="rect1646" />
  <rect
     x="72.92"
     y="102.35"
     width="2.81"
     height="0.5"
     fill="#2e4394"
     id="rect1648" />
  <rect
     x="75.73"
     y="102.35"
     width="2.81"
     height="0.5"
     fill="#2e4394"
     id="rect1650" />
  <rect
     x="78.54"
     y="102.35"
     width="2.81"
     height="0.5"
     fill="#2e4394"
     id="rect1652" />
  <polygon
     points="84.47 97.62 83.69 97.62 81.84 102.91 82.62 102.91 84.47 97.62"
     fill="#2e4394"
     id="polygon1654" />
  <rect
     x="83.57"
     y="102.35"
     width="2.81"
     height="0.5"
     fill="#2e4394"
     id="rect1656" />
  <rect
     x="86.38"
     y="102.35"
     width="2.81"
     height="0.5"
     fill="#2e4394"
     id="rect1658" />
  <rect
     x="89.19"
     y="102.35"
     width="2.81"
     height="0.5"
     fill="#2e4394"
     id="rect1660" />
  <rect
     x="92"
     y="102.35"
     width="2.81"
     height="0.5"
     fill="#2e4394"
     id="rect1662" />
  <polygon
     points="97.15 97.62 95.3 102.91 96.08 102.91 97.93 97.62 97.15 97.62"
     fill="#2e4394"
     id="polygon1664" />
  <rect
     x="97.03"
     y="102.35"
     width="2.81"
     height="0.5"
     fill="#2e4394"
     id="rect1666" />
  <rect
     x="99.84"
     y="102.35"
     width="2.81"
     height="0.5"
     fill="#2e4394"
     id="rect1668" />
  <rect
     x="102.65"
     y="102.35"
     width="2.81"
     height="0.5"
     fill="#2e4394"
     id="rect1670" />
  <rect
     x="105.46"
     y="102.35"
     width="2.81"
     height="0.5"
     fill="#2e4394"
     id="rect1672" />
  <rect
     x="108.27"
     y="102.35"
     width="2.81"
     height="0.5"
     fill="#2e4394"
     id="rect1674" />
  <rect
     x="111.08"
     y="102.35"
     width="2.81"
     height="0.5"
     fill="#2e4394"
     id="rect1676" />
  <rect
     x="113.89"
     y="102.35"
     width="2.81"
     height="0.5"
     fill="#2e4394"
     id="rect1678" />
  <rect
     x="116.7"
     y="102.35"
     width="2.81"
     height="0.5"
     fill="#2e4394"
     id="rect1680" />
  <path
     d="M13.53,114v-2.55H11.25v.73h1.38V114c0,.43-.19.65-.56.65a.91.91,0,0,1-.73-.43l-.34.41V115a1.66,1.66,0,0,0,1.12.41A1.27,1.27,0,0,0,13.53,114Z"
     fill="#2e4394"
     id="path1682" />
  <path
     d="M10.84,114.84A.65.65,0,0,0,11,115v-.36Z"
     fill="#2e4394"
     id="path1684" />
  <path
     d="M14.81,111.91a.51.51,0,0,0,.54-.51.49.49,0,0,0-.54-.47.5.5,0,0,0-.55.49A.51.51,0,0,0,14.81,111.91Z"
     fill="#2e4394"
     id="path1686" />
  <rect
     x="14.37"
     y="112.33"
     width="0.88"
     height="3.02"
     fill="#2e4394"
     id="rect1688" />
  <path
     d="M18.27,115.35h.88v-1.73a1.19,1.19,0,0,0-1.25-1.34,1.31,1.31,0,0,0-1,.4v-.35h-.84v3h.88v-1.49c0-.56.3-.82.72-.82s.61.23.61.71Z"
     fill="#2e4394"
     id="path1690" />
  <path
     d="M21.8,115v.38h.82v-1.73c0-.91-.54-1.34-1.46-1.34a2.29,2.29,0,0,0-1.3.37l.31.61A1.48,1.48,0,0,1,21,113c.48,0,.7.22.7.59H21c-.92,0-1.29.38-1.29.91s.42.91,1.13.91A1,1,0,0,0,21.8,115Zm-1.2-.53c0-.2.13-.36.54-.36h.6v.31a.63.63,0,0,1-.64.41C20.79,114.8,20.6,114.66,20.6,114.44Z"
     fill="#2e4394"
     id="path1692" />
  <rect
     x="25"
     y="111.18"
     width="0.88"
     height="4.17"
     fill="#2e4394"
     id="rect1694" />
  <path
     d="M28.55,115.35h.82v-1.73c0-.91-.54-1.34-1.46-1.34a2.29,2.29,0,0,0-1.3.37l.31.61a1.48,1.48,0,0,1,.87-.28c.48,0,.7.22.7.59h-.7c-.92,0-1.29.38-1.29.91s.42.91,1.13.91a1,1,0,0,0,.92-.42Zm-.06-1a.63.63,0,0,1-.64.41c-.31,0-.5-.14-.5-.36s.13-.36.54-.36h.6Z"
     fill="#2e4394"
     id="path1696" />
  <polygon
     points="33.73 115.35 34.63 112.69 35.49 115.35 36.47 115.35 37.76 111.42 36.89 111.42 35.97 114.2 35.07 111.42 34.23 111.42 33.3 114.18 32.41 111.42 31.47 111.42 32.76 115.35 33.73 115.35"
     fill="#2e4394"
     id="polygon1698" />
  <rect
     x="38.26"
     y="112.33"
     width="0.88"
     height="3.02"
     fill="#2e4394"
     id="rect1700" />
  <path
     d="M38.7,110.93a.5.5,0,0,0-.55.49.55.55,0,0,0,1.09,0A.49.49,0,0,0,38.7,110.93Z"
     fill="#2e4394"
     id="path1702" />
  <rect
     x="39.95"
     y="111.18"
     width="0.88"
     height="4.17"
     fill="#2e4394"
     id="rect1704" />
  <path
     d="M44.32,115.35v-1.73c0-.91-.54-1.34-1.46-1.34a2.29,2.29,0,0,0-1.3.37l.31.61a1.48,1.48,0,0,1,.87-.28c.48,0,.7.22.7.59h-.7c-.92,0-1.29.38-1.29.91s.42.91,1.13.91a1,1,0,0,0,.92-.42v.38Zm-.88-1a.64.64,0,0,1-.65.41c-.3,0-.49-.14-.49-.36s.13-.36.54-.36h.6Z"
     fill="#2e4394"
     id="path1706" />
  <path
     d="M45.41,115.78a.76.76,0,0,1-.49-.2l-.33.63a1.39,1.39,0,0,0,.85.27,1.25,1.25,0,0,0,1.25-1l1.36-3.2h-.84l-.85,2-.85-2h-.9l1.31,3,0,0C45.79,115.67,45.65,115.78,45.41,115.78Z"
     fill="#2e4394"
     id="path1708" />
  <path
     d="M51,115.35v-1.73c0-.91-.54-1.34-1.46-1.34a2.29,2.29,0,0,0-1.3.37l.31.61a1.49,1.49,0,0,1,.88-.28c.47,0,.69.22.69.59h-.69c-.93,0-1.3.38-1.3.91s.42.91,1.13.91a1,1,0,0,0,.92-.42v.38Zm-.88-1a.63.63,0,0,1-.64.41c-.31,0-.5-.14-.5-.36s.13-.36.54-.36h.6Z"
     fill="#2e4394"
     id="path1710" />
  <path
     d="M52.66,114.84a.55.55,0,0,0-1.09,0,.55.55,0,1,0,1.09,0Z"
     fill="#2e4394"
     id="path1712" />
  <path
     d="M52.11,113.38a.54.54,0,0,0,.55-.55.55.55,0,0,0-1.09,0A.53.53,0,0,0,52.11,113.38Z"
     fill="#2e4394"
     id="path1714" />
  <rect
     x="54.44"
     y="115.35"
     width="2.81"
     height="0.5"
     fill="#2e4394"
     id="rect1716" />
  <rect
     x="57.25"
     y="115.35"
     width="2.81"
     height="0.5"
     fill="#2e4394"
     id="rect1718" />
  <rect
     x="60.06"
     y="115.35"
     width="2.81"
     height="0.5"
     fill="#2e4394"
     id="rect1720" />
  <rect
     x="62.87"
     y="115.35"
     width="2.81"
     height="0.5"
     fill="#2e4394"
     id="rect1722" />
  <rect
     x="65.68"
     y="115.35"
     width="2.81"
     height="0.5"
     fill="#2e4394"
     id="rect1724" />
  <rect
     x="68.49"
     y="115.35"
     width="2.81"
     height="0.5"
     fill="#2e4394"
     id="rect1726" />
  <rect
     x="71.3"
     y="115.35"
     width="2.81"
     height="0.5"
     fill="#2e4394"
     id="rect1728" />
  <rect
     x="74.11"
     y="115.35"
     width="2.81"
     height="0.5"
     fill="#2e4394"
     id="rect1730" />
  <rect
     x="76.92"
     y="115.35"
     width="2.81"
     height="0.5"
     fill="#2e4394"
     id="rect1732" />
  <rect
     x="79.73"
     y="115.35"
     width="2.81"
     height="0.5"
     fill="#2e4394"
     id="rect1734" />
  <rect
     x="82.54"
     y="115.35"
     width="2.81"
     height="0.5"
     fill="#2e4394"
     id="rect1736" />
  <rect
     x="85.35"
     y="115.35"
     width="2.81"
     height="0.5"
     fill="#2e4394"
     id="rect1738" />
  <rect
     x="88.16"
     y="115.35"
     width="2.81"
     height="0.5"
     fill="#2e4394"
     id="rect1740" />
  <rect
     x="90.97"
     y="115.35"
     width="2.81"
     height="0.5"
     fill="#2e4394"
     id="rect1742" />
  <rect
     x="93.78"
     y="115.35"
     width="2.81"
     height="0.5"
     fill="#2e4394"
     id="rect1744" />
  <rect
     x="96.58"
     y="115.35"
     width="2.81"
     height="0.5"
     fill="#2e4394"
     id="rect1746" />
  <rect
     x="99.39"
     y="115.35"
     width="2.81"
     height="0.5"
     fill="#2e4394"
     id="rect1748" />
  <rect
     x="102.2"
     y="115.35"
     width="2.81"
     height="0.5"
     fill="#2e4394"
     id="rect1750" />
  <rect
     x="105.01"
     y="115.35"
     width="2.81"
     height="0.5"
     fill="#2e4394"
     id="rect1752" />
  <rect
     x="107.82"
     y="115.35"
     width="2.81"
     height="0.5"
     fill="#2e4394"
     id="rect1754" />
  <rect
     x="110.63"
     y="115.35"
     width="2.81"
     height="0.5"
     fill="#2e4394"
     id="rect1756" />
  <rect
     x="113.44"
     y="115.35"
     width="2.81"
     height="0.5"
     fill="#2e4394"
     id="rect1758" />
  <rect
     x="116.25"
     y="115.35"
     width="2.81"
     height="0.5"
     fill="#2e4394"
     id="rect1760" />
  <polygon
     points="12.21 128.35 13.12 128.35 13.12 125.16 14.37 125.16 14.37 124.42 11 124.42 11 125.16 12.21 125.16 12.21 128.35"
     fill="#2e4394"
     id="polygon1762" />
  <rect
     x="10.95"
     y="124.42"
     width="0.05"
     height="0.74"
     fill="#2e4394"
     id="rect1764" />
  <path
     d="M15.87,125.28a2.29,2.29,0,0,0-1.3.37l.31.61a1.48,1.48,0,0,1,.87-.28c.47,0,.7.22.7.59h-.7c-.92,0-1.29.38-1.29.91s.42.91,1.12.91a1,1,0,0,0,.92-.42v.38h.82v-1.73C17.32,125.71,16.79,125.28,15.87,125.28Zm.58,2.11a.65.65,0,0,1-.65.41c-.31,0-.49-.14-.49-.36s.13-.36.54-.36h.6Z"
     fill="#2e4394"
     id="path1766" />
  <path
     d="M19,125.33h-.84v3H19v-1.43a.74.74,0,0,1,.8-.84H20v-.81a1.2,1.2,0,0,0-1,.45Z"
     fill="#2e4394"
     id="path1768" />
  <path
     d="M21.88,125.28a1.54,1.54,0,0,0-1.61,1.56A1.56,1.56,0,0,0,22,128.39a1.63,1.63,0,0,0,1.25-.48l-.47-.51a1,1,0,0,1-.76.29.8.8,0,0,1-.86-.61h2.28a1.79,1.79,0,0,0,0-.23A1.5,1.5,0,0,0,21.88,125.28Zm-.74,1.29a.75.75,0,0,1,1.48,0Z"
     fill="#2e4394"
     id="path1770" />
  <path
     d="M25.87,125.28a1.37,1.37,0,0,0-1,.36v-1.46H24v4.17h.87v-1.49c0-.56.31-.82.73-.82s.61.23.61.71v1.6h.87v-1.73A1.19,1.19,0,0,0,25.87,125.28Z"
     fill="#2e4394"
     id="path1772" />
  <path
     d="M29.34,125.28a1.54,1.54,0,0,0-1.61,1.56,1.56,1.56,0,0,0,1.72,1.55,1.61,1.61,0,0,0,1.25-.48l-.47-.51a1,1,0,0,1-.76.29.8.8,0,0,1-.86-.61h2.28a1.79,1.79,0,0,0,0-.23A1.5,1.5,0,0,0,29.34,125.28Zm-.74,1.29a.71.71,0,0,1,.74-.62.72.72,0,0,1,.75.62Z"
     fill="#2e4394"
     id="path1774" />
  <path
     d="M34.39,127.38l-.85-2h-.9l1.31,3v0c-.12.27-.26.38-.5.38a.76.76,0,0,1-.49-.2l-.32.63a1.36,1.36,0,0,0,.84.27,1.24,1.24,0,0,0,1.25-.95l1.37-3.2h-.84Z"
     fill="#2e4394"
     id="path1776" />
  <path
     d="M37.57,125.28a2.32,2.32,0,0,0-1.31.37l.32.61a1.48,1.48,0,0,1,.87-.28c.47,0,.7.22.7.59h-.7c-.92,0-1.3.38-1.3.91s.42.91,1.13.91a1,1,0,0,0,.92-.42v.38H39v-1.73C39,125.71,38.49,125.28,37.57,125.28Zm.58,2.11a.65.65,0,0,1-.65.41c-.31,0-.49-.14-.49-.36s.12-.36.53-.36h.61Z"
     fill="#2e4394"
     id="path1778" />
  <polygon
     points="44.61 125.33 43.56 125.33 42.28 126.54 42.28 124.18 41.41 124.18 41.41 128.35 42.28 128.35 42.28 127.58 42.7 127.16 43.66 128.35 44.72 128.35 43.35 126.61 44.61 125.33"
     fill="#2e4394"
     id="polygon1780" />
  <path
     d="M48.1,128.35v-3h-.87v1.49c0,.56-.3.82-.7.82s-.61-.23-.61-.73v-1.58H45V127a1.2,1.2,0,0,0,1.29,1.35,1.22,1.22,0,0,0,.94-.4v.36Z"
     fill="#2e4394"
     id="path1782" />
  <path
     d="M49,128.35c0,.3-.14.44-.36.44a.62.62,0,0,1-.37-.11l-.24.63a1.29,1.29,0,0,0,.71.17,1,1,0,0,0,1.13-1.14v-3H49Z"
     fill="#2e4394"
     id="path1784" />
  <path
     d="M49.4,123.93a.5.5,0,0,0-.55.49.55.55,0,0,0,1.09,0A.49.49,0,0,0,49.4,123.93Z"
     fill="#2e4394"
     id="path1786" />
  <path
     d="M51.08,123.93a.5.5,0,0,0-.54.49.5.5,0,0,0,.54.49.51.51,0,0,0,.55-.51A.49.49,0,0,0,51.08,123.93Z"
     fill="#2e4394"
     id="path1788" />
  <rect
     x="50.65"
     y="125.33"
     width="0.88"
     height="3.02"
     fill="#2e4394"
     id="rect1790" />
  <path
     d="M54.5,126.82c0,.56-.29.82-.69.82s-.61-.23-.61-.73v-1.58h-.88V127a1.2,1.2,0,0,0,1.29,1.35,1.24,1.24,0,0,0,.94-.4v.36h.83v-3H54.5Z"
     fill="#2e4394"
     id="path1792" />
  <path
     d="M58,125.28a1.32,1.32,0,0,0-1,.4v-.35H56.2v3h.87v-1.49c0-.56.31-.82.73-.82s.61.23.61.71v1.6h.88v-1.73A1.19,1.19,0,0,0,58,125.28Z"
     fill="#2e4394"
     id="path1794" />
  <path
     d="M62.4,125.71a1.22,1.22,0,0,0-1-.43,1.46,1.46,0,1,0,0,2.92,1.24,1.24,0,0,0,1-.37V128c0,.54-.27.82-.88.82a1.8,1.8,0,0,1-1.07-.34l-.35.63a2.55,2.55,0,0,0,1.49.41,1.48,1.48,0,0,0,1.69-1.64v-2.51H62.4Zm-.83,1.77a.74.74,0,1,1,0-1.48.74.74,0,1,1,0,1.48Z"
     fill="#2e4394"
     id="path1796" />
  <path
     d="M65.27,125.28a2.3,2.3,0,0,0-1.31.37l.32.61a1.48,1.48,0,0,1,.87-.28c.47,0,.69.22.69.59h-.69c-.92,0-1.3.38-1.3.91s.42.91,1.13.91a1,1,0,0,0,.92-.42v.38h.82v-1.73C66.72,125.71,66.19,125.28,65.27,125.28Zm.57,2.11a.63.63,0,0,1-.64.41c-.31,0-.49-.14-.49-.36s.12-.36.53-.36h.6Z"
     fill="#2e4394"
     id="path1798" />
  <path
     d="M67.85,127.3a.53.53,0,0,0-.55.54.55.55,0,1,0,1.09,0A.53.53,0,0,0,67.85,127.3Z"
     fill="#2e4394"
     id="path1800" />
  <path
     d="M67.85,125.29a.52.52,0,0,0-.55.54.55.55,0,1,0,1.09,0A.52.52,0,0,0,67.85,125.29Z"
     fill="#2e4394"
     id="path1802" />
  <rect
     x="70.17"
     y="128.35"
     width="2.81"
     height="0.5"
     fill="#2e4394"
     id="rect1804" />
  <rect
     x="72.98"
     y="128.35"
     width="2.81"
     height="0.5"
     fill="#2e4394"
     id="rect1806" />
  <rect
     x="75.79"
     y="128.35"
     width="2.81"
     height="0.5"
     fill="#2e4394"
     id="rect1808" />
  <rect
     x="78.6"
     y="128.35"
     width="2.81"
     height="0.5"
     fill="#2e4394"
     id="rect1810" />
  <polygon
     points="83.75 123.62 81.9 128.91 82.68 128.91 84.53 123.62 83.75 123.62"
     fill="#2e4394"
     id="polygon1812" />
  <rect
     x="83.63"
     y="128.35"
     width="2.81"
     height="0.5"
     fill="#2e4394"
     id="rect1814" />
  <rect
     x="86.44"
     y="128.35"
     width="2.81"
     height="0.5"
     fill="#2e4394"
     id="rect1816" />
  <rect
     x="89.25"
     y="128.35"
     width="2.81"
     height="0.5"
     fill="#2e4394"
     id="rect1818" />
  <rect
     x="92.06"
     y="128.35"
     width="2.81"
     height="0.5"
     fill="#2e4394"
     id="rect1820" />
  <polygon
     points="97.21 123.62 95.36 128.91 96.14 128.91 97.99 123.62 97.21 123.62"
     fill="#2e4394"
     id="polygon1822" />
  <rect
     x="97.09"
     y="128.35"
     width="2.81"
     height="0.5"
     fill="#2e4394"
     id="rect1824" />
  <rect
     x="99.9"
     y="128.35"
     width="2.81"
     height="0.5"
     fill="#2e4394"
     id="rect1826" />
  <rect
     x="102.71"
     y="128.35"
     width="2.81"
     height="0.5"
     fill="#2e4394"
     id="rect1828" />
  <rect
     x="105.52"
     y="128.35"
     width="2.81"
     height="0.5"
     fill="#2e4394"
     id="rect1830" />
  <rect
     x="108.33"
     y="128.35"
     width="2.81"
     height="0.5"
     fill="#2e4394"
     id="rect1832" />
  <rect
     x="111.14"
     y="128.35"
     width="2.81"
     height="0.5"
     fill="#2e4394"
     id="rect1834" />
  <rect
     x="113.95"
     y="128.35"
     width="2.81"
     height="0.5"
     fill="#2e4394"
     id="rect1836" />
  <rect
     x="116.76"
     y="128.35"
     width="2.81"
     height="0.5"
     fill="#2e4394"
     id="rect1838" />
  <circle
     cx="37.36"
     cy="87.35"
     r="4.01"
     fill="none"
     stroke="#2e4394"
     stroke-miterlimit="10"
     id="circle1840" />
  <circle
     cx="69.51"
     cy="87.35"
     r="4.01"
     fill="none"
     stroke="#2e4394"
     stroke-miterlimit="10"
     id="circle1842" />
  <path
     d="M79.26,10.41A2.68,2.68,0,1,0,76.58,13,2.53,2.53,0,0,0,79.26,10.41ZM76.58,12a1.5,1.5,0,0,1-1.53-1.57,1.53,1.53,0,1,1,3.06,0A1.49,1.49,0,0,1,76.58,12Z"
     fill="#2e4394"
     id="path1844" />
  <polygon
     points="81.25 11.08 83.52 11.08 83.52 10.17 81.25 10.17 81.25 8.87 83.82 8.87 83.82 7.96 80.11 7.96 80.11 12.86 81.25 12.86 81.25 11.08"
     fill="#2e4394"
     id="polygon1846" />
  <rect
     x="84.59"
     y="7.96"
     width="1.13"
     height="4.9"
     fill="#2e4394"
     id="rect1848" />
  <path
     d="M88.5,12a2.84,2.84,0,0,1-1.62-.52l-.38.86a3.45,3.45,0,0,0,2,.57c1.4,0,2.08-.7,2.08-1.52,0-1.8-2.85-1.18-2.85-2.08,0-.31.26-.56.94-.56A2.72,2.72,0,0,1,90,9.17l.35-.86a3.23,3.23,0,0,0-1.7-.43c-1.39,0-2.06.69-2.06,1.52,0,1.82,2.85,1.19,2.85,2.11C89.45,11.81,89.17,12,88.5,12Z"
     fill="#2e4394"
     id="path1850" />
  <rect
     x="91.35"
     y="7.96"
     width="1.13"
     height="4.9"
     fill="#2e4394"
     id="rect1852" />
  <polygon
     points="96.84 12.86 97.98 12.86 97.98 11.13 99.88 7.96 98.77 7.96 97.46 10.14 96.15 7.96 94.95 7.96 96.84 11.11 96.84 12.86"
     fill="#2e4394"
     id="polygon1854" />
  <path
     d="M100.58,12.86l.43-1h2.28l.43,1h1.19L102.72,8H101.6l-2.19,4.9Zm1.57-3.79.78,1.88h-1.56Z"
     fill="#2e4394"
     id="path1856" />
  <path
     d="M108.53,11.5h1l.94,1.36h1.22l-1.1-1.57a1.61,1.61,0,0,0,1-1.55c0-1.1-.82-1.78-2.13-1.78H107.4v4.9h1.13Zm0-2.62h.93c.69,0,1,.32,1,.86s-.35.85-1,.85h-.93Z"
     fill="#2e4394"
     id="path1858" />
  <path
     d="M113.5,11.81h2.27l.44,1h1.19L115.21,8h-1.13l-2.18,4.9h1.16Zm1.14-2.74.78,1.88h-1.56Z"
     fill="#2e4394"
     id="path1860" />
  <rect
     x="117.91"
     y="7.96"
     width="1.13"
     height="4.9"
     fill="#2e4394"
     id="rect1862" />
  <path
     d="M121.82,12a2.84,2.84,0,0,1-1.62-.52l-.38.86a3.45,3.45,0,0,0,2,.57c1.4,0,2.08-.7,2.08-1.52,0-1.8-2.85-1.18-2.85-2.08,0-.31.26-.56.93-.56a2.72,2.72,0,0,1,1.36.38l.35-.86a3.23,3.23,0,0,0-1.7-.43c-1.39,0-2.06.69-2.06,1.52,0,1.82,2.85,1.19,2.85,2.11C122.77,11.81,122.49,12,121.82,12Z"
     fill="#2e4394"
     id="path1864" />
  <rect
     x="126.43"
     y="10.45"
     width="1.98"
     height="0.88"
     fill="#2e4394"
     id="rect1866" />
  <polygon
     points="132.35 12.86 133.48 12.86 133.48 8.88 135.05 8.88 135.05 7.96 130.78 7.96 130.78 8.88 132.35 8.88 132.35 12.86"
     fill="#2e4394"
     id="polygon1868" />
  <path
     d="M135.93,12.86l.44-1h2.27l.44,1h1.19L138.07,8H137l-2.18,4.9Zm1.58-3.79.77,1.88h-1.55Z"
     fill="#2e4394"
     id="path1870" />
  <polygon
     points="141.84 9.98 143.28 12.34 143.79 12.34 145.23 9.92 145.24 12.86 146.3 12.86 146.29 7.96 145.35 7.96 143.55 11.01 141.71 7.96 140.77 7.96 140.77 12.86 141.84 12.86 141.84 9.98"
     fill="#2e4394"
     id="polygon1872" />
  <rect
     x="147.46"
     y="7.96"
     width="1.13"
     height="4.9"
     fill="#2e4394"
     id="rect1874" />
  <path
     d="M151.37,12a2.87,2.87,0,0,1-1.62-.52l-.38.86a3.46,3.46,0,0,0,2,.57c1.4,0,2.08-.7,2.08-1.52,0-1.8-2.85-1.18-2.85-2.08,0-.31.25-.56.93-.56a2.78,2.78,0,0,1,1.36.38l.35-.86a3.29,3.29,0,0,0-1.71-.43c-1.39,0-2.06.69-2.06,1.52,0,1.82,2.85,1.19,2.85,2.11C152.32,11.81,152,12,151.37,12Z"
     fill="#2e4394"
     id="path1876" />
  <polygon
     points="158.02 11.95 155.35 11.95 155.35 10.82 157.63 10.82 157.63 9.94 155.35 9.94 155.35 8.87 157.93 8.87 157.93 7.96 154.22 7.96 154.22 12.86 158.02 12.86 158.02 11.95"
     fill="#2e4394"
     id="polygon1878" />
  <polygon
     points="159.98 9.98 161.42 12.34 161.93 12.34 163.37 9.92 163.38 12.86 164.44 12.86 164.43 7.96 163.5 7.96 161.69 11.01 159.86 7.96 158.92 7.96 158.92 12.86 159.98 12.86 159.98 9.98"
     fill="#2e4394"
     id="polygon1880" />
  <rect
     x="165.6"
     y="7.96"
     width="1.13"
     height="4.9"
     fill="#2e4394"
     id="rect1882" />
  <path
     d="M13.06,147.12a1.12,1.12,0,0,1,.88.41l.52-.48a1.8,1.8,0,0,0-1.44-.62,1.81,1.81,0,1,0,0,3.62,1.78,1.78,0,0,0,1.44-.63l-.52-.48a1.1,1.1,0,0,1-.88.42,1.12,1.12,0,1,1,0-2.24Z"
     fill="#fff"
     id="path1884" />
  <path
     d="M16.14,147.26a1.39,1.39,0,1,0,0,2.77,1.39,1.39,0,1,0,0-2.77Zm0,2.13a.75.75,0,0,1,0-1.49.75.75,0,0,1,0,1.49Z"
     fill="#fff"
     id="path1886" />
  <path
     d="M19.72,147.26a1,1,0,0,0-.84.35v-.31h-.75V151h.78V149.7a1.06,1.06,0,0,0,.81.33,1.39,1.39,0,0,0,0-2.77Zm-.13,2.13a.75.75,0,0,1,0-1.49.75.75,0,0,1,0,1.49Z"
     fill="#fff"
     id="path1888" />
  <path
     d="M22.67,149.12l-.76-1.82h-.8L22.27,150v0c-.1.24-.22.34-.44.34a.73.73,0,0,1-.44-.17l-.28.55a1.15,1.15,0,0,0,.75.25,1.11,1.11,0,0,0,1.11-.85l1.22-2.85h-.75Z"
     fill="#fff"
     id="path1890" />
  <path
     d="M25.24,147.3H24.5V150h.78v-1.27A.66.66,0,0,1,26,148h.18v-.72a1.09,1.09,0,0,0-.93.39Z"
     fill="#fff"
     id="path1892" />
  <rect
     x="26.63"
     y="147.3"
     width="0.78"
     height="2.69"
     fill="#fff"
     id="rect1894" />
  <path
     d="M27,146.05a.44.44,0,1,0,0,.87.45.45,0,0,0,.49-.45A.44.44,0,0,0,27,146.05Z"
     fill="#fff"
     id="path1896" />
  <path
     d="M30.17,147.64a1.06,1.06,0,0,0-.89-.38,1.3,1.3,0,1,0,0,2.6,1.09,1.09,0,0,0,.85-.34v.12c0,.48-.24.74-.79.74a1.66,1.66,0,0,1-.95-.31l-.31.56a2.19,2.19,0,0,0,1.32.37,1.32,1.32,0,0,0,1.51-1.46V147.3h-.74Zm-.73,1.58a.66.66,0,1,1,0-1.32.66.66,0,1,1,0,1.32Z"
     fill="#fff"
     id="path1898" />
  <path
     d="M33.27,147.26a1.18,1.18,0,0,0-.85.32v-1.3h-.78V150h.78v-1.33c0-.5.27-.73.64-.73s.55.2.55.64V150h.78v-1.54A1.06,1.06,0,0,0,33.27,147.26Z"
     fill="#fff"
     id="path1900" />
  <path
     d="M36.3,149.41a.31.31,0,0,1-.33-.36V148h.67v-.6H36v-.66h-.78v.66h-.42v.6h.42v1.1a.89.89,0,0,0,1,1,1.17,1.17,0,0,0,.64-.17l-.21-.55A.58.58,0,0,1,36.3,149.41Z"
     fill="#fff"
     id="path1902" />
  <path
     d="M40.35,146.47a1.77,1.77,0,1,0,1.77,1.76A1.73,1.73,0,0,0,40.35,146.47Zm0,3.35a1.58,1.58,0,0,1,0-3.16,1.54,1.54,0,0,1,1.57,1.57A1.57,1.57,0,0,1,40.34,149.82Z"
     fill="#fff"
     id="path1904" />
  <path
     d="M40.38,147.46a.7.7,0,0,1,.59.28l.21-.16a.92.92,0,0,0-.79-.38,1,1,0,0,0,0,2.08.93.93,0,0,0,.79-.39l-.21-.16a.69.69,0,0,1-.59.29.78.78,0,0,1,0-1.56Z"
     fill="#fff"
     id="path1906" />
  <path
     d="M45.89,146.43a1.81,1.81,0,1,0,1.92,1.81A1.81,1.81,0,0,0,45.89,146.43Zm0,2.93a1.12,1.12,0,1,1,1.1-1.12A1.07,1.07,0,0,1,45.89,149.36Z"
     fill="#fff"
     id="path1908" />
  <path
     d="M51.45,147.76c0-.79-.58-1.27-1.52-1.27H48.42V150h.81v-1H50l.68,1h.87l-.79-1.13A1.12,1.12,0,0,0,51.45,147.76Zm-1.56.61h-.66v-1.22h.66c.49,0,.74.22.74.61S50.38,148.37,49.89,148.37Z"
     fill="#fff"
     id="path1910" />
  <polygon
     points="56.16 146.49 53.11 146.49 53.11 147.15 54.23 147.15 54.23 149.99 55.04 149.99 55.04 147.15 56.16 147.15 56.16 146.49"
     fill="#fff"
     id="polygon1912" />
  <path
     d="M57.52,146.49,56,150h.83l.31-.75h1.63L59,150h.85l-1.57-3.5Zm-.16,2.13.56-1.34.55,1.34Z"
     fill="#fff"
     id="path1914" />
  <polygon
     points="63.52 146.49 62.23 148.66 60.92 146.49 60.25 146.49 60.25 149.99 61.01 149.99 61.01 147.93 62.04 149.62 62.4 149.62 63.44 147.89 63.44 149.99 64.2 149.99 64.19 146.49 63.52 146.49"
     fill="#fff"
     id="polygon1916" />
  <rect
     x="65.03"
     y="146.49"
     width="0.81"
     height="3.5"
     fill="#fff"
     id="rect1918" />
  <path
     d="M67.27,147.48c0-.22.18-.4.66-.4a2,2,0,0,1,1,.27l.25-.61a2.27,2.27,0,0,0-1.21-.31c-1,0-1.48.49-1.48,1.09,0,1.3,2,.85,2,1.5,0,.22-.2.38-.68.38a2,2,0,0,1-1.15-.37l-.28.61a2.5,2.5,0,0,0,1.43.41c1,0,1.48-.5,1.48-1.09C69.3,147.68,67.27,148.12,67.27,147.48Z"
     fill="#fff"
     id="path1920" />
  <polygon
     points="70.66 148.53 72.29 148.53 72.29 147.9 70.66 147.9 70.66 147.14 72.5 147.14 72.5 146.49 69.86 146.49 69.86 149.99 72.57 149.99 72.57 149.34 70.66 149.34 70.66 148.53"
     fill="#fff"
     id="polygon1922" />
  <polygon
     points="76.48 146.49 75.19 148.66 73.88 146.49 73.21 146.49 73.21 149.99 73.97 149.99 73.97 147.93 75 149.62 75.36 149.62 76.39 147.89 76.4 149.99 77.16 149.99 77.15 146.49 76.48 146.49"
     fill="#fff"
     id="polygon1924" />
  <rect
     x="77.99"
     y="146.49"
     width="0.81"
     height="3.5"
     fill="#fff"
     id="rect1926" />
  <path
     d="M170,50.35h.59v.5H170v12.5h2.58v.5H170v12.5h1v.5h-1V89h13V42H170Zm3.81,26.5H171v-.5h2.81Zm-3.22-26.5h2.81v.5h-2.81Z"
     fill="#fff"
     id="path1928" />
  <rect
     x="170"
     y="50.35"
     width="0.59"
     height="0.51"
     fill="#fff"
     id="rect1930" />
  <rect
     x="170.59"
     y="50.35"
     width="2.81"
     height="0.51"
     fill="#fff"
     id="rect1932" />
  <rect
     x="170"
     y="63.35"
     width="2.58"
     height="0.51"
     fill="#fff"
     id="rect1934" />
  <rect
     x="170"
     y="76.35"
     width="1"
     height="0.5"
     fill="#fff"
     id="rect1936" />
  <rect
     x="171"
     y="76.35"
     width="2.81"
     height="0.5"
     fill="#fff"
     id="rect1938" />

<text
     id="txtNa"
     x="100"
     y="36"
     style="font-style:normal;font-variant:normal;font-weight:bold;font-stretch:normal;font-size:6px;font-family:monospace;-inkscape-font-specification:'monospace, Bold';font-variant-ligatures:normal;font-variant-caps:normal;font-variant-numeric:normal;font-feature-settings:normal;text-align:start;writing-mode:lr;text-anchor:start;">@@SerialNumber</text>
  <text
     id="txtRegion"
     x="191.82802"
     y="54.203133"
     text-anchor="middle"
     dominant-baseline="middle"
     style="font-style:normal;font-variant:normal;font-weight:normal;font-stretch:normal;font-size:6.49999985px;font-family:Arial;-inkscape-font-specification:'Arial, Normal';font-variant-ligatures:normal;font-variant-caps:all-small-caps;font-variant-numeric:normal;font-feature-settings:normal;text-align:start;writing-mode:lr;text-anchor:start;stroke-width:1.04236794;text-transform:uppercase;"
     transform="scale(1.042368,0.95935413)">@@Location</text>
  <svg
     id="qrCode"
     width="9mm"
     height="9mm"
     x="200"
     y="55"
     version="1.1">
    @@QRCode
  </svg>
  <text
     id="txtIdNumber"
     x="267.34076"
     y="65.081497"
     transform="scale(0.74559514,1.3412105)"
     text-anchor="middle"
     dominant-baseline="middle"
     style="font-style:normal;font-variant:normal;font-weight:bold;font-stretch:normal;font-size:6px;font-family:monospace;-inkscape-font-specification:'monospace, Bold';font-variant-ligatures:normal;font-variant-caps:normal;font-variant-numeric:proportional-nums ;font-feature-settings:normal;text-align:start;text-transform:uppercase;writing-mode:lr;text-anchor:start;stroke-width:0.77138948;">@@InsuranceNumber</text>

</svg>
